<svg width="64" height="64" viewBox="0 0 64 64" fill="none" xmlns="http://www.w3.org/2000/svg">
<path d="M49 10C49 9.1 49 8.3 48.9 7.5C48.9 6.7 48.3 6 47.6 5.7C42.7 3.9 37.5 3 32 3C26.5 3 21.3 3.9 16.4 5.7C15.6 6 15.1 6.7 15.1 7.5C15 8.3 15 9.1 15 10C15 24.6 21.6 37.6 32 46.2C42.4 37.6 49 24.6 49 10Z" fill="#EF5350"/>
<path d="M46.5 6.69998C44.6 6.69998 43 7.89998 42.4 9.69998C40.9 13.9 36.8 17 32 17C27.2 17 23.1 13.9 21.6 9.59998C21 7.79998 19.3 6.59998 17.5 6.59998C14.1 6.59998 11.7 9.89998 12.7 13.1L18.6 32.8H45.3L51.2 13.1C52.3 9.89998 49.9 6.69998 46.5 6.69998Z" fill="#E53935"/>
<path d="M21 29.3V35.4C20.7 36.1 20.3 36.7 19.8 37.3C17.9 38.1 16 38.2 14.1 37.9C14.1 34.7 11.3 26.2 8.79999 27.7C8.69999 27.8 8.59999 27.8 8.39999 27.9C7.29999 28.5 5.99999 27.6 6.19999 26.4C6.29999 25.6 6.49999 24.9 6.79999 24.2C7.49999 22.5 8.99999 21.3 10.8 21.1C11.7 21 12.6 21 13.5 21.1C15.2 21.4 16.7 22 18 23C20 24.5 21 26.8 21 29.3ZM43 29.3V35.4C43.3 36.1 43.7 36.7 44.2 37.3C46.1 38.1 48 38.2 49.9 37.9C49.9 34.7 52.7 26.2 55.2 27.7C55.3 27.8 55.4 27.8 55.6 27.9C56.7 28.5 58 27.6 57.8 26.4C57.7 25.6 57.5 24.9 57.2 24.2C56.5 22.5 55 21.3 53.2 21.1C52.3 21 51.4 21 50.5 21.1C48.8 21.4 47.3 22 46 23C44 24.5 43 26.8 43 29.3Z" fill="#E57373"/>
<path d="M55.4 27.8C54.8 27.2 53.9 27.2 53.3 27.8C50.4 30.6 48.6 34.2 48.2 38.1H15.9C15.4 34.2 13.7 30.6 10.8 27.8C10.2 27.2 9.3 27.3 8.7 27.8C8.1 28.4 8.2 29.3 8.7 29.9C11.5 32.5 13 36.1 13 40C13 41.3 11.6 52.1 11.6 52.1C11.4 53.8 11.8 55.5 12.8 56.9C12.5 57.9 12.1 58.9 11.4 59.8C11.1 60.2 11.2 60.9 11.6 61.2C11.8 61.3 12 61.4 12.2 61.4C12.5 61.4 12.8 61.3 13 61C13.7 60.1 14.2 59.1 14.5 58.1C15.7 58.1 17.1 56.9 18.6 56.9H45.5C46.5 56.9 47.5 57.5 48.5 57.8C48.9 59.1 49.6 60.4 50.5 61.4C50.7 61.6 51 61.7 51.3 61.7C51.5 61.7 51.8 61.6 52 61.5C52.4 61.1 52.5 60.5 52.1 60.1C51.5 59.4 51 58.6 50.7 57.7C50.8 57.6 50.8 57.6 50.9 57.5C52.2 56 52.8 54 52.6 52C52.6 52 51.2 41.2 51.2 39.9C51.2 36 52.7 32.4 55.5 29.8C55.9 29.3 56 28.4 55.4 27.8Z" fill="#4E342E"/>
<path d="M45.5 57H18.5C16.1 57 14.2 54.9 14.5 52.5L16 41H48L49.4 52.5C49.7 54.9 47.9 57 45.5 57Z" fill="#E53935"/>
<path d="M46 33.7C37.2 28.7 26.8 28.7 18 33.7C16.7 34.4 16 35.7 16 37.2C16 38.6 16 40.5 16 42C16 43.7 17.3 45 19 45H45C46.7 45 48 43.7 48 42C48 40.5 48 38.6 48 37.2C48 35.8 47.2 34.4 46 33.7Z" fill="#EF5350"/>
</svg>
