<svg width="64" height="64" viewBox="0 0 64 64" fill="none" xmlns="http://www.w3.org/2000/svg">
<path d="M32 15C36.7468 15 41.3869 16.4076 45.3337 19.0447C49.2805 21.6819 52.3566 25.4302 54.1731 29.8156C55.9896 34.201 56.4649 39.0266 55.5388 43.6822C54.6128 48.3377 52.327 52.6141 48.9706 55.9706C45.6141 59.327 41.3377 61.6128 36.6822 62.5388C32.0266 63.4649 27.201 62.9896 22.8156 61.1731C18.4302 59.3566 14.6819 56.2805 12.0447 52.3337C9.40758 48.3869 8 43.7468 8 39C8.00159 32.6353 10.5307 26.5317 15.0312 22.0312C19.5317 17.5307 25.6353 15.0016 32 15Z" fill="#D8E2F7"/>
<path d="M37 11V15H35.62C35.4336 15.0013 35.2506 14.9505 35.0916 14.8533C34.9326 14.7561 34.8039 14.6164 34.72 14.45L34 12V14C34 14.2652 33.8946 14.5196 33.7071 14.7071C33.5196 14.8946 33.2652 15 33 15H31C30.7348 15 30.4804 14.8946 30.2929 14.7071C30.1054 14.5196 30 14.2652 30 14V12L29.28 14.45C29.1961 14.6164 29.0674 14.7561 28.9084 14.8533C28.7494 14.9505 28.5664 15.0013 28.38 15H27V11C27.0016 10.4701 27.2128 9.96227 27.5875 9.58753C27.9623 9.2128 28.4701 9.00158 29 9H35C35.5299 9.00158 36.0377 9.2128 36.4125 9.58753C36.7872 9.96227 36.9984 10.4701 37 11Z" fill="#DBE0E9"/>
<path d="M32 9C33.6569 9 35 7.20914 35 5C35 2.79086 33.6569 1 32 1C30.3431 1 29 2.79086 29 5C29 7.20914 30.3431 9 32 9Z" fill="white"/>
<path d="M34.72 14.45L34 12V14C34 14.2652 33.8946 14.5196 33.7071 14.7071C33.5196 14.8946 33.2652 15 33 15H32C33.6805 15.0004 35.3563 15.1767 37 15.526V15H35.62C35.4336 15.0013 35.2506 14.9505 35.0916 14.8533C34.9326 14.7561 34.8039 14.6164 34.72 14.45Z" fill="#6E7685"/>
<path d="M31 15C30.7348 15 30.4804 14.8946 30.2929 14.7071C30.1054 14.5196 30 14.2652 30 14V12L29.28 14.45C29.1961 14.6164 29.0674 14.7561 28.9084 14.8533C28.7494 14.9505 28.5664 15.0013 28.38 15H27V15.526C28.6437 15.1767 30.3195 15.0004 32 15H31Z" fill="#6E7685"/>
<path d="M33 11C33 10.4477 32.5523 10 32 10C31.4477 10 31 10.4477 31 11V12C31 12.5523 31.4477 13 32 13C32.5523 13 33 12.5523 33 12V11Z" fill="#EFF1F8"/>
<path d="M37 11C37 10.4477 36.5523 10 36 10C35.4477 10 35 10.4477 35 11V12C35 12.5523 35.4477 13 36 13C36.5523 13 37 12.5523 37 12V11Z" fill="#EFF1F8"/>
<path d="M29 11C29 10.4477 28.5523 10 28 10C27.4477 10 27 10.4477 27 11V12C27 12.5523 27.4477 13 28 13C28.5523 13 29 12.5523 29 12V11Z" fill="#EFF1F8"/>
<path d="M32 15C36.7468 15 41.3869 16.4076 45.3337 19.0447C49.2805 21.6819 52.3566 25.4302 54.1731 29.8156C55.9896 34.201 56.4649 39.0266 55.5388 43.6822C54.6128 48.3377 52.327 52.6141 48.9706 55.9706C45.6141 59.327 41.3377 61.6128 36.6822 62.5388C32.0266 63.4649 27.201 62.9896 22.8156 61.1731C18.4302 59.3566 14.6819 56.2805 12.0447 52.3337C9.40758 48.3869 8 43.7468 8 39C8.00159 32.6353 10.5307 26.5317 15.0312 22.0312C19.5317 17.5307 25.6353 15.0016 32 15Z" fill="#D8E2F7"/>
<path d="M30.98 36.21C30.9966 36.3057 31.0033 36.4029 31 36.5C31 37.2956 30.6839 38.0587 30.1213 38.6213C29.5587 39.1839 28.7956 39.5 28 39.5C27.2043 39.5 26.4413 39.1839 25.8787 38.6213C25.3161 38.0587 25 37.2956 25 36.5C24.9961 36.1795 25.0503 35.8611 25.16 35.56C25.2919 35.1546 25.5092 34.7822 25.7972 34.4679C26.0852 34.1536 26.4372 33.9047 26.8295 33.7379C27.2218 33.5711 27.6453 33.4904 28.0715 33.5011C28.4976 33.5118 28.9166 33.6137 29.3 33.8C29.7669 34.0189 30.1679 34.3569 30.4628 34.7799C30.7577 35.2029 30.9361 35.6962 30.98 36.21Z" fill="#C22026"/>
<path d="M35.71 43.79C35.393 44.4586 34.8406 44.9868 34.1585 45.2736C33.4764 45.5604 32.7125 45.5856 32.013 45.3445C31.3135 45.1033 30.7274 44.6127 30.367 43.9666C30.0065 43.3204 29.8969 42.564 30.0592 41.8421C30.2215 41.1202 30.6443 40.4835 31.2466 40.0537C31.8489 39.624 32.5886 39.4315 33.324 39.5129C34.0594 39.5944 34.739 39.9441 35.2327 40.4952C35.7264 41.0463 35.9996 41.7601 36 42.5C35.9977 42.9459 35.8987 43.386 35.71 43.79Z" fill="#C22026"/>
<path d="M36 31.5C36.7957 31.5 37.5587 31.8161 38.1213 32.3787C38.6839 32.9413 39 33.7044 39 34.5C39 35.2956 38.6839 36.0587 38.1213 36.6213C37.5587 37.1839 36.7957 37.5 36 37.5C35.442 37.4982 34.8952 37.3425 34.42 37.05C33.8655 36.7063 33.4381 36.1913 33.2026 35.5829C32.9671 34.9746 32.9364 34.306 33.115 33.6786C33.2936 33.0512 33.6719 32.499 34.1925 32.1059C34.7131 31.7128 35.3476 31.5001 36 31.5Z" fill="#C22026"/>
<path d="M19 23.5L29.3 33.8C28.9166 33.6137 28.4976 33.5118 28.0715 33.5011C27.6453 33.4904 27.2218 33.5711 26.8295 33.7379C26.4372 33.9047 26.0852 34.1536 25.7972 34.4679C25.5092 34.7823 25.2919 35.1546 25.16 35.56L25 35.5C23.85 34.35 21 34.5 21 34.5C21.21 34.26 22.8 32.23 21.08 30.5C20.6632 30.1301 20.1745 29.8503 19.6445 29.6783C19.1144 29.5062 18.5546 29.4455 18 29.5C18 29.5 20.23 25.96 19 23.5Z" fill="#004A2D"/>
<path d="M19 53.5L30 42.5C30 43.2956 30.3161 44.0587 30.8787 44.6213C31.4413 45.1839 32.2044 45.5 33 45.5L34 48.5C33.81 48.41 31.49 47.17 30.31 48.35C29.13 49.53 29.92 51.32 29.99 51.49C29.82 51.34 27.77 49.66 26 51.42C24.77 52.65 26 54.5 26 54.5C26 54.5 21.46 52.27 19 53.5Z" fill="#004A2D"/>
<path d="M32.31 38.5H52C49.31 39.37 48 43.5 48 43.5C47.1695 42.6249 46.0431 42.0902 44.84 42C44.1334 41.9614 43.44 42.2018 42.9089 42.6693C42.3777 43.1369 42.0514 43.7943 42 44.5C41.7653 44.0255 41.4058 43.624 40.96 43.3386C40.5143 43.0531 39.9991 42.8946 39.47 42.88C37.68 42.87 37 45.5 37 45.5C36.677 44.8566 36.2399 44.2772 35.71 43.79C35.8987 43.386 35.9977 42.9459 36 42.5C36.0005 41.9593 35.8549 41.4285 35.5785 40.9638C35.3021 40.4991 34.9053 40.1177 34.43 39.86C33.8812 39.1981 33.1404 38.7229 32.31 38.5Z" fill="#004A2D"/>
<path d="M24 38.5C24.23 38.63 28.05 40.78 30.49 40.85C30.1686 41.3401 29.9982 41.9139 30 42.5L19 53.5C20.23 51.04 18 47.5 18 47.5C18.5546 47.5545 19.1144 47.4938 19.6445 47.3218C20.1745 47.1497 20.6632 46.8699 21.08 46.5C22.84 44.73 21.16 42.68 21.01 42.51C21.18 42.58 22.98 43.36 24.15 42.19C25.32 41.02 24.09 38.69 24 38.5Z" fill="#007145"/>
<path d="M19 23.5C21.46 24.73 25 22.5 25 22.5C24.9455 23.0546 25.0062 23.6144 25.1783 24.1445C25.3503 24.6745 25.6301 25.1632 26 25.58C27.77 27.34 29.85 25.63 30 25.5C29.94 25.71 29.16 27.5 30.31 28.65C31.49 29.83 33.81 28.59 34 28.5C33.83 28.8 30.36 34.86 32.15 36.65C31.7885 36.4365 31.3926 36.2876 30.98 36.21C30.9361 35.6962 30.7577 35.203 30.4629 34.7799C30.168 34.3569 29.7669 34.0189 29.3 33.8L19 23.5Z" fill="#007145"/>
<path d="M52 38.5H32.31C32.7496 38.4371 33.1687 38.2735 33.5347 38.022C33.9007 37.7705 34.2037 37.4378 34.42 37.05C34.8952 37.3425 35.442 37.4982 36 37.5C36.7956 37.5 37.5587 37.1839 38.1213 36.6213C38.6839 36.0587 39 35.2956 39 34.5C40.79 34.49 42 32.5 42 32.5C42.0514 33.2057 42.3777 33.8631 42.9089 34.3307C43.44 34.7982 44.1334 35.0386 44.84 35C46.0431 34.9098 47.1695 34.3751 48 33.5C48 33.5 49.31 37.62 52 38.5Z" fill="#007145"/>
<path d="M32 15C25.6353 15.0016 19.5317 17.5307 15.0312 22.0312C10.5307 26.5317 8.00159 32.6353 8 39C8 39.328 8.012 39.653 8.025 39.977L15.025 33.563C15.1326 29.1315 16.9685 24.9177 20.1408 21.8215C23.3131 18.7253 27.5702 16.9921 32.003 16.9921C36.4358 16.9921 40.6929 18.7253 43.8652 21.8215C47.0375 24.9177 48.8734 29.1315 48.981 33.563L55.981 39.977C55.994 39.653 56.006 39.328 56.006 39C56.0044 32.6343 53.4745 26.5298 48.9727 22.0291C44.4709 17.5284 38.3657 15 32 15Z" fill="#D8E2F7"/>
<path d="M49 34C49 34.522 48.968 35.035 48.922 35.545C49.5598 36.8677 50.6524 37.9167 52 38.5C49.31 39.37 48 43.5 48 43.5C47.6167 43.1106 47.1788 42.7791 46.7 42.516C45.0361 45.4369 42.5342 47.7914 39.5178 49.2752C36.5014 50.7589 33.1093 51.3037 29.78 50.839C29.8333 51.061 29.9035 51.2787 29.99 51.49C29.82 51.34 27.77 49.66 26 51.42C24.77 52.65 26 54.5 26 54.5C26 54.5 21.46 52.27 19 53.5C20.23 51.04 18 47.5 18 47.5C18.9856 47.5819 19.9687 47.3154 20.778 46.747C18.9625 45.1565 17.5077 43.1964 16.5112 40.998C15.5148 38.7996 14.9995 36.4137 15 34C15 33.852 15.018 33.71 15.022 33.563L8.022 39.977C8.27486 46.1661 10.9114 52.0177 15.3799 56.3074C19.8484 60.5971 25.8027 62.9925 31.997 62.9925C38.1913 62.9925 44.1456 60.5971 48.6141 56.3074C53.0826 52.0177 55.7192 46.1661 55.972 39.977L48.972 33.563C48.982 33.71 49 33.852 49 34Z" fill="#B2BFD6"/>
<path d="M19 53.5C21.46 52.27 26 54.5 26 54.5C26 54.5 24.77 52.65 26 51.42C27.77 49.66 29.82 51.34 29.99 51.49C29.9035 51.2787 29.8333 51.061 29.78 50.839C27.6361 50.562 25.5652 49.8759 23.68 48.818L19 53.5Z" fill="#003621"/>
<path d="M46.7 42.516C47.1788 42.7791 47.6167 43.1106 48 43.5C48 43.5 49.31 39.37 52 38.5H48.378C47.9948 39.9057 47.4308 41.2556 46.7 42.516Z" fill="#003621"/>
<path d="M20.778 46.7469C19.9687 47.3153 18.9856 47.5818 18 47.4999C18 47.4999 20.23 51.0399 19 53.4999L23.682 48.8179C22.6442 48.2312 21.6708 47.537 20.778 46.7469Z" fill="#004A2D"/>
<path d="M52 38.5C50.6524 37.9167 49.5598 36.8678 48.922 35.545C48.829 36.5443 48.6469 37.5332 48.378 38.5H52Z" fill="#004A2D"/>
<path d="M42 44.5C41.7654 44.0255 41.4058 43.624 40.96 43.3385C40.5143 43.0531 39.9991 42.8946 39.47 42.88C37.68 42.87 37 45.5 37 45.5C36.677 44.8566 36.24 44.2772 35.71 43.79C35.4661 44.302 35.0821 44.7345 34.6024 45.0371C34.1228 45.3398 33.5672 45.5003 33 45.5L34 48.5C33.81 48.41 31.49 47.17 30.31 48.35C30.0125 48.6827 29.8071 49.0875 29.7141 49.524C29.6212 49.9606 29.6439 50.4139 29.78 50.839C33.1093 51.3037 36.5014 50.7589 39.5178 49.2752C42.5342 47.7914 45.0361 45.4369 46.7 42.516C46.133 42.1908 45.4934 42.0134 44.84 42C44.1335 41.9614 43.44 42.2018 42.9089 42.6693C42.3777 43.1369 42.0514 43.7942 42 44.5Z" fill="#D0DAED"/>
<path d="M25.16 35.56L25 35.5C24.265 34.9227 23.3668 34.5917 22.433 34.554C22.524 34.7083 22.6065 34.8675 22.68 35.031C23.1808 36.1542 24.0779 37.0535 25.2 37.557C25.0695 37.2197 25.0017 36.8615 25 36.5C24.9961 36.1795 25.0503 35.8611 25.16 35.56Z" fill="#D8E2F7"/>
<path d="M21.6 33.51C21.8468 33.0185 21.9292 32.4608 21.8353 31.9189C21.7413 31.377 21.4758 30.8797 21.078 30.5C20.6612 30.1301 20.1725 29.8503 19.6425 29.6782C19.1124 29.5061 18.5526 29.4454 17.998 29.5C17.998 29.5 20.228 25.96 18.998 23.5C21.458 24.73 24.998 22.5 24.998 22.5C24.9435 23.0545 25.0042 23.6144 25.1763 24.1444C25.3483 24.6744 25.6281 25.1632 25.998 25.58C27.768 27.34 29.848 25.63 29.998 25.5C29.938 25.71 29.158 27.5 30.308 28.65C31.488 29.83 33.808 28.59 33.998 28.5C33.828 28.8 30.358 34.86 32.148 36.65C31.7865 36.4365 31.3906 36.2876 30.978 36.21C30.9946 36.3057 31.0013 36.4029 30.998 36.5C30.9953 37.0279 30.852 37.5457 30.583 38H33.53C33.8679 37.7246 34.1673 37.4051 34.42 37.05C33.9757 36.7747 33.611 36.3881 33.3621 35.9285C33.1132 35.469 32.9886 34.9523 33.0008 34.4298C33.013 33.9073 33.1615 33.397 33.4316 32.9495C33.7017 32.502 34.084 32.1329 34.5406 31.8786C34.9973 31.6244 35.5125 31.4938 36.0351 31.5C36.5577 31.5061 37.0697 31.6486 37.5203 31.9135C37.9709 32.1784 38.3444 32.5563 38.604 33.01C38.8635 33.4637 39 33.9773 39 34.5C40.79 34.49 42 32.5 42 32.5C42.0398 32.8765 42.1483 33.2425 42.32 33.58C43.1874 32.7245 44.3503 32.2349 45.5683 32.2124C46.7864 32.1899 47.9666 32.6361 48.865 33.459L48.978 33.559C48.8704 29.1275 47.0345 24.9136 43.8622 21.8174C40.6899 18.7212 36.4328 16.988 32 16.988C27.5672 16.988 23.3101 18.7212 20.1378 21.8174C16.9655 24.9136 15.1296 29.1275 15.022 33.559L15.135 33.459C16.0199 32.6496 17.1783 32.205 18.3775 32.2145C19.5767 32.2239 20.7279 32.6867 21.6 33.51Z" fill="#F5F9FF"/>
<path d="M20.778 46.7469C20.8832 46.6712 20.9834 46.5887 21.078 46.4999C22.838 44.7299 21.158 42.6799 21.008 42.5099C21.178 42.5799 22.978 43.3599 24.148 42.1899C25.318 41.0199 24.088 38.6899 23.998 38.4999C24.228 38.6299 28.048 40.7799 30.488 40.8499C30.7627 40.435 31.1359 40.0946 31.5742 39.859C32.0126 39.6235 32.5024 39.5001 33 39.4999C33.4993 39.498 33.9911 39.6218 34.43 39.8599C33.8812 39.1981 33.1404 38.7229 32.31 38.4999C32.7618 38.4775 33.1924 38.301 33.53 37.9999H30.585C30.3032 38.4918 29.887 38.8931 29.3853 39.157C28.8836 39.4208 28.3171 39.5363 27.7522 39.4898C27.1872 39.4433 26.6472 39.2368 26.1954 38.8945C25.7436 38.5522 25.3986 38.0882 25.201 37.5569C24.0786 37.0537 23.181 36.1544 22.68 35.0309C22.6065 34.8675 22.524 34.7083 22.433 34.5539C21.9572 34.5021 21.4783 34.484 21 34.4999C21.2463 34.2003 21.4483 33.8669 21.6 33.5099C20.7278 32.6861 19.5762 32.223 18.3765 32.2135C17.1769 32.2041 16.0181 32.649 15.133 33.4589L15.02 33.5589C15.02 33.7059 14.998 33.8479 14.998 33.9959C14.9972 36.4105 15.5125 38.7973 16.5093 40.9964C17.5062 43.1955 18.9616 45.1562 20.778 46.7469Z" fill="#D0DAED"/>
<path d="M42.32 33.5801C42.5522 34.0397 42.9157 34.42 43.3643 34.6728C43.813 34.9256 44.3266 35.0395 44.84 35.0001C46.0431 34.9099 47.1695 34.3752 48 33.5001C48.2444 34.2084 48.553 34.8929 48.922 35.5451C48.968 35.0351 49 34.5221 49 34.0001C49 33.8521 48.982 33.7101 48.978 33.5631L48.865 33.4631C47.9671 32.6397 46.7872 32.1927 45.5691 32.2145C44.3511 32.2363 43.1879 32.7251 42.32 33.5801Z" fill="#D8E2F7"/>
<path d="M25.2 37.557C25.3975 38.0886 25.7424 38.5528 26.1944 38.8953C26.6463 39.2378 27.1865 39.4445 27.7516 39.4909C28.3168 39.5374 28.8835 39.4219 29.3853 39.1578C29.8871 38.8938 30.3033 38.4921 30.585 38H27.249C26.5423 37.9995 25.8438 37.8485 25.2 37.557Z" fill="#911A1C"/>
<path d="M30.98 36.21C30.908 35.4691 30.5632 34.7814 30.0124 34.2805C29.4617 33.7797 28.7444 33.5015 28 33.5C27.3695 33.4987 26.7549 33.6974 26.2446 34.0676C25.7342 34.4377 25.3545 34.9603 25.16 35.56C25.0503 35.8611 24.9961 36.1796 25 36.5C25.0017 36.8616 25.0695 37.2198 25.2 37.557C25.8438 37.8485 26.5423 37.9995 27.249 38H30.585C30.854 37.5457 30.9973 37.028 31 36.5C31.0033 36.4029 30.9966 36.3057 30.98 36.21Z" fill="#C22026"/>
<path d="M33 45.5C33.5672 45.5003 34.1228 45.3398 34.6024 45.0371C35.0821 44.7345 35.4661 44.3021 35.71 43.79C35.8987 43.386 35.9977 42.9459 36 42.5C36 41.9067 35.8241 41.3266 35.4944 40.8333C35.1648 40.3399 34.6962 39.9554 34.148 39.7284C33.5999 39.5013 32.9967 39.4419 32.4147 39.5576C31.8328 39.6734 31.2982 39.9591 30.8787 40.3787C30.4591 40.7982 30.1734 41.3328 30.0576 41.9147C29.9419 42.4967 30.0013 43.0999 30.2284 43.648C30.4554 44.1962 30.8399 44.6648 31.3333 44.9944C31.8266 45.3241 32.4067 45.5 33 45.5Z" fill="#911A1C"/>
<path d="M39 34.5C39 33.9773 38.8635 33.4637 38.604 33.01C38.3444 32.5564 37.9709 32.1784 37.5203 31.9135C37.0697 31.6486 36.5577 31.5061 36.0351 31.5C35.5125 31.4938 34.9973 31.6244 34.5406 31.8786C34.084 32.1329 33.7017 32.502 33.4316 32.9495C33.1615 33.397 33.013 33.9073 33.0008 34.4298C32.9886 34.9523 33.1132 35.469 33.3621 35.9285C33.611 36.3881 33.9757 36.7747 34.42 37.05C34.8952 37.3425 35.442 37.4982 36 37.5C36.7956 37.5 37.5587 37.1839 38.1213 36.6213C38.6839 36.0587 39 35.2956 39 34.5Z" fill="#C22026"/>
<path d="M21.6 33.51C21.4483 33.867 21.2463 34.2004 21 34.5C21.4783 34.4841 21.9572 34.5022 22.433 34.554C22.2064 34.1681 21.9259 33.8166 21.6 33.51Z" fill="#004F30"/>
<path d="M25.16 35.56C25.2919 35.1546 25.5092 34.7823 25.7972 34.4679C26.0852 34.1536 26.4372 33.9047 26.8295 33.7379C27.2218 33.5711 27.6453 33.4904 28.0715 33.5011C28.4976 33.5118 28.9166 33.6137 29.3 33.8L19 23.5C20.23 25.96 18 29.5 18 29.5C18.5546 29.4455 19.1144 29.5062 19.6445 29.6783C20.1745 29.8503 20.6632 30.1301 21.08 30.5C21.4778 30.8797 21.7433 31.3771 21.8373 31.9189C21.9312 32.4608 21.8488 33.0185 21.602 33.51C21.9272 33.8167 22.2071 34.1683 22.433 34.554C23.3668 34.5918 24.265 34.9228 25 35.5L25.16 35.56Z" fill="#007145"/>
<path d="M30.31 48.35C31.49 47.17 33.81 48.41 34 48.5L33 45.5C32.2044 45.5 31.4413 45.1839 30.8787 44.6213C30.3161 44.0587 30 43.2956 30 42.5L23.682 48.818C25.5672 49.8759 27.6381 50.562 29.782 50.839C29.6456 50.4141 29.6226 49.9609 29.7152 49.5243C29.8078 49.0878 30.0128 48.683 30.31 48.35Z" fill="#004A2D"/>
<path d="M32.31 38.5C33.1404 38.7229 33.8812 39.1981 34.43 39.86C34.9053 40.1177 35.3021 40.4991 35.5785 40.9638C35.8549 41.4285 36.0005 41.9593 36 42.5C35.9977 42.9459 35.8987 43.386 35.71 43.79C36.2399 44.2772 36.677 44.8566 37 45.5C37 45.5 37.68 42.87 39.47 42.88C39.9991 42.8946 40.5143 43.0531 40.96 43.3386C41.4058 43.624 41.7653 44.0255 42 44.5C42.0514 43.7943 42.3777 43.1369 42.9089 42.6693C43.44 42.2018 44.1334 41.9614 44.84 42C45.4924 42.0139 46.1309 42.1913 46.697 42.516C47.4288 41.2558 47.9939 39.9058 48.378 38.5H32.31Z" fill="#004A2D"/>
<path d="M30 42.5C29.9982 41.9139 30.1686 41.3401 30.49 40.85C28.05 40.78 24.23 38.63 24 38.5C24.09 38.69 25.33 41.01 24.15 42.19C22.97 43.37 21.18 42.58 21.01 42.51C21.16 42.68 22.84 44.73 21.08 46.5C20.9854 46.5887 20.8852 46.6712 20.78 46.747C21.6716 47.5368 22.6436 48.231 23.68 48.818L30 42.5Z" fill="#007145"/>
<path d="M30.98 36.21C31.3926 36.2876 31.7885 36.4365 32.15 36.65C30.36 34.86 33.83 28.8 34 28.5C33.81 28.59 31.49 29.83 30.31 28.65C29.16 27.5 29.94 25.71 30 25.5C29.85 25.63 27.77 27.34 26 25.58C25.6301 25.1632 25.3503 24.6745 25.1783 24.1445C25.0062 23.6144 24.9455 23.0546 25 22.5C25 22.5 21.46 24.73 19 23.5L29.3 33.8C29.7669 34.0189 30.168 34.3569 30.4629 34.7799C30.7577 35.203 30.9361 35.6962 30.98 36.21Z" fill="#00995D"/>
<path d="M44.84 35C44.3265 35.0395 43.8129 34.9256 43.3643 34.6728C42.9157 34.42 42.5522 34.0396 42.32 33.58C41.8987 33.9968 41.5595 34.489 41.32 35.031C40.9271 35.9147 40.2864 36.6656 39.4755 37.1926C38.6645 37.7195 37.7181 38 36.751 38H33.53C33.1923 38.3011 32.7618 38.4775 32.31 38.5H48.378C48.6469 37.5332 48.829 36.5442 48.922 35.545C48.553 34.8929 48.2444 34.2083 48 33.5C47.1695 34.3751 46.0431 34.9098 44.84 35Z" fill="#007145"/>
<path d="M41.32 35.031C41.5595 34.489 41.8987 33.9968 42.32 33.58C42.1483 33.2426 42.0398 32.8765 42 32.5C42 32.5 40.79 34.49 39 34.5C39 35.2956 38.6839 36.0587 38.1213 36.6213C37.5587 37.1839 36.7956 37.5 36 37.5C35.442 37.4982 34.8952 37.3425 34.42 37.05C34.1672 37.4051 33.8679 37.7247 33.53 38H36.751C37.7181 38 38.6645 37.7195 39.4755 37.1926C40.2864 36.6656 40.9271 35.9147 41.32 35.031Z" fill="#00995D"/>
<path d="M34.77 20.4899L34.72 20.5599C34.382 20.9923 34.1562 21.5015 34.0627 22.0423C33.9693 22.5831 34.011 23.1386 34.1842 23.6593C34.3575 24.18 34.6569 24.6498 35.0557 25.0268C35.4545 25.4038 35.9404 25.6762 36.47 25.8199C38.8058 26.5561 41.0607 27.5278 43.2 28.7199C43.4787 28.9083 43.805 29.0138 44.1412 29.0243C44.4774 29.0349 44.8096 28.9499 45.0995 28.7793C45.3894 28.6087 45.625 28.3595 45.7791 28.0605C45.9331 27.7615 45.9993 27.425 45.97 27.0899C45.7231 25.2406 44.94 23.5041 43.7173 22.0949C42.4946 20.6856 40.886 19.6653 39.09 19.1599C38.3188 18.9348 37.4984 18.9408 36.7306 19.1772C35.9627 19.4136 35.2811 19.87 34.77 20.4899Z" fill="white"/>
<path d="M47.43 48.76L47.39 48.72C46.36 47.51 44.44 47.87 43.51 49.45C42.6066 51.0246 41.5624 52.514 40.39 53.9C39.63 54.74 40.04 56.05 41.05 56C42.4093 55.9727 43.7361 55.5794 44.8906 54.8613C46.0451 54.1433 46.9845 53.1272 47.61 51.92C47.895 51.4342 48.03 50.8751 47.998 50.3128C47.9659 49.7505 47.7683 49.2102 47.43 48.76Z" fill="#D0DAED"/>
<path d="M37.99 57.27C38.0381 57.6567 37.9696 58.0489 37.7932 58.3963C37.6168 58.7438 37.3406 59.0306 37 59.22C35.65 59.76 33.43 60.45 32.52 59.6C32.3137 59.4062 32.1596 59.1634 32.0722 58.8942C31.9848 58.625 31.9669 58.338 32.02 58.06C32.17 56.97 32.99 56.18 33.77 56.26C34.7419 56.3724 35.7262 56.2977 36.67 56.04C37.34 55.84 37.93 56.38 37.99 57.27Z" fill="#D0DAED"/>
<path d="M38.319 33.777C38.738 33.37 38.364 32.557 37.864 32.277C37.4271 32.0707 36.9466 31.974 36.464 31.995C36.2697 31.9877 36.0754 32.0103 35.888 32.062C35.8042 32.0812 35.7261 32.1201 35.6602 32.1753C35.5943 32.2306 35.5425 32.3008 35.509 32.38C35.4984 32.4573 35.5056 32.536 35.5303 32.6101C35.5549 32.6841 35.5962 32.7515 35.651 32.807C35.8812 33.0827 36.1508 33.3229 36.451 33.52C36.715 33.7261 37.0181 33.8765 37.342 33.962C37.5082 34.0074 37.6826 34.0144 37.8519 33.9823C38.0211 33.9503 38.1809 33.88 38.319 33.777Z" fill="#FF5766"/>
<path d="M35.319 41.777C35.738 41.37 35.364 40.557 34.864 40.277C34.4271 40.0707 33.9466 39.974 33.464 39.995C33.2697 39.9877 33.0754 40.0103 32.888 40.062C32.8042 40.0812 32.7261 40.1201 32.6602 40.1753C32.5943 40.2306 32.5425 40.3008 32.509 40.38C32.4984 40.4573 32.5056 40.536 32.5303 40.6101C32.5549 40.6841 32.5962 40.7515 32.651 40.807C32.8812 41.0827 33.1508 41.3229 33.451 41.52C33.715 41.7261 34.0181 41.8765 34.342 41.962C34.5082 42.0074 34.6826 42.0144 34.8519 41.9823C35.0211 41.9503 35.1809 41.8801 35.319 41.777Z" fill="#C22026"/>
<path d="M30.319 35.777C30.738 35.37 30.364 34.557 29.864 34.277C29.4272 34.0707 28.9466 33.974 28.464 33.995C28.2697 33.9877 28.0754 34.0103 27.888 34.062C27.8042 34.0812 27.7261 34.1201 27.6602 34.1753C27.5943 34.2306 27.5425 34.3008 27.509 34.38C27.4984 34.4573 27.5056 34.536 27.5302 34.6101C27.5549 34.6841 27.5962 34.7515 27.651 34.807C27.8812 35.0827 28.1507 35.3229 28.451 35.52C28.715 35.7261 29.0181 35.8765 29.342 35.962C29.5082 36.0074 29.6826 36.0144 29.8519 35.9823C30.0211 35.9503 30.1809 35.8801 30.319 35.777Z" fill="#FF5766"/>
<path d="M32 63C45.2548 63 56 52.2548 56 39C56 25.7452 45.2548 15 32 15C18.7452 15 8 25.7452 8 39C8 52.2548 18.7452 63 32 63Z" stroke="black" stroke-width="2" stroke-linejoin="round"/>
<path d="M37 15V11C37 10.4696 36.7893 9.96086 36.4142 9.58579C36.0391 9.21071 35.5304 9 35 9H29C28.4696 9 27.9609 9.21071 27.5858 9.58579C27.2107 9.96086 27 10.4696 27 11V15H28.382C28.5677 14.9999 28.7496 14.9481 28.9075 14.8504C29.0654 14.7528 29.193 14.6131 29.276 14.447L30 12V14C30 14.2652 30.1054 14.5196 30.2929 14.7071C30.4804 14.8946 30.7348 15 31 15H33C33.2652 15 33.5196 14.8946 33.7071 14.7071C33.8946 14.5196 34 14.2652 34 14V12L34.724 14.447C34.807 14.6131 34.9346 14.7528 35.0925 14.8504C35.2504 14.9481 35.4323 14.9999 35.618 15H37Z" stroke="black" stroke-width="2" stroke-linejoin="round"/>
<path d="M32 9C33.6569 9 35 7.20914 35 5C35 2.79086 33.6569 1 32 1C30.3431 1 29 2.79086 29 5C29 7.20914 30.3431 9 32 9Z" stroke="black" stroke-width="2" stroke-linejoin="round"/>
<path d="M30.98 36.21C30.9966 36.3057 31.0033 36.4029 31 36.5C31 37.2956 30.6839 38.0587 30.1213 38.6213C29.5587 39.1839 28.7956 39.5 28 39.5C27.2043 39.5 26.4413 39.1839 25.8787 38.6213C25.3161 38.0587 25 37.2956 25 36.5C24.9961 36.1795 25.0503 35.8611 25.16 35.56C25.2919 35.1546 25.5092 34.7822 25.7972 34.4679C26.0852 34.1536 26.4372 33.9047 26.8295 33.7379C27.2218 33.5711 27.6453 33.4904 28.0715 33.5011C28.4976 33.5118 28.9166 33.6137 29.3 33.8C29.7669 34.0189 30.1679 34.3569 30.4628 34.7799C30.7577 35.2029 30.9361 35.6962 30.98 36.21V36.21Z" stroke="black" stroke-width="2" stroke-linejoin="round"/>
<path d="M35.71 43.79C35.393 44.4586 34.8406 44.9868 34.1585 45.2736C33.4764 45.5604 32.7125 45.5856 32.013 45.3445C31.3135 45.1033 30.7274 44.6127 30.367 43.9666C30.0065 43.3204 29.8969 42.564 30.0592 41.8421C30.2215 41.1202 30.6443 40.4835 31.2466 40.0537C31.8489 39.624 32.5886 39.4315 33.324 39.5129C34.0594 39.5944 34.739 39.9441 35.2327 40.4952C35.7264 41.0463 35.9996 41.7601 36 42.5C35.9977 42.9459 35.8987 43.386 35.71 43.79V43.79Z" stroke="black" stroke-width="2" stroke-linejoin="round"/>
<path d="M36 31.5C36.7957 31.5 37.5587 31.8161 38.1213 32.3787C38.6839 32.9413 39 33.7044 39 34.5C39 35.2956 38.6839 36.0587 38.1213 36.6213C37.5587 37.1839 36.7957 37.5 36 37.5C35.442 37.4982 34.8952 37.3425 34.42 37.05C33.8655 36.7063 33.4381 36.1913 33.2026 35.5829C32.9671 34.9746 32.9364 34.306 33.115 33.6786C33.2936 33.0512 33.6719 32.499 34.1925 32.1059C34.7131 31.7128 35.3476 31.5001 36 31.5V31.5Z" stroke="black" stroke-width="2" stroke-linejoin="round"/>
<path d="M19 23.5L29.3 33.8C28.9166 33.6137 28.4976 33.5118 28.0715 33.5011C27.6453 33.4904 27.2218 33.5711 26.8295 33.7379C26.4372 33.9047 26.0852 34.1536 25.7972 34.4679C25.5092 34.7823 25.2919 35.1546 25.16 35.56L25 35.5C23.85 34.35 21 34.5 21 34.5C21.21 34.26 22.8 32.23 21.08 30.5C20.6632 30.1301 20.1745 29.8503 19.6445 29.6783C19.1144 29.5062 18.5546 29.4455 18 29.5C18 29.5 20.23 25.96 19 23.5Z" stroke="black" stroke-width="2" stroke-linejoin="round"/>
<path d="M19 53.5L30 42.5C30 43.2956 30.3161 44.0587 30.8787 44.6213C31.4413 45.1839 32.2044 45.5 33 45.5L34 48.5C33.81 48.41 31.49 47.17 30.31 48.35C29.13 49.53 29.92 51.32 29.99 51.49C29.82 51.34 27.77 49.66 26 51.42C24.77 52.65 26 54.5 26 54.5C26 54.5 21.46 52.27 19 53.5Z" stroke="black" stroke-width="2" stroke-linejoin="round"/>
<path d="M32.31 38.5H52C49.31 39.37 48 43.5 48 43.5C47.1695 42.6249 46.0431 42.0902 44.84 42C44.1334 41.9614 43.44 42.2018 42.9089 42.6693C42.3777 43.1369 42.0514 43.7943 42 44.5C41.7653 44.0255 41.4058 43.624 40.96 43.3386C40.5143 43.0531 39.9991 42.8946 39.47 42.88C37.68 42.87 37 45.5 37 45.5C36.677 44.8566 36.2399 44.2772 35.71 43.79C35.8987 43.386 35.9977 42.9459 36 42.5C36.0005 41.9593 35.8549 41.4285 35.5785 40.9638C35.3021 40.4991 34.9053 40.1177 34.43 39.86C33.8812 39.1981 33.1404 38.7229 32.31 38.5V38.5Z" stroke="black" stroke-width="2" stroke-linejoin="round"/>
<path d="M24 38.5C24.23 38.63 28.05 40.78 30.49 40.85C30.1686 41.3401 29.9982 41.9139 30 42.5L19 53.5C20.23 51.04 18 47.5 18 47.5C18.5546 47.5545 19.1144 47.4938 19.6445 47.3218C20.1745 47.1497 20.6632 46.8699 21.08 46.5C22.84 44.73 21.16 42.68 21.01 42.51C21.18 42.58 22.98 43.36 24.15 42.19C25.32 41.02 24.09 38.69 24 38.5Z" stroke="black" stroke-width="2" stroke-linejoin="round"/>
<path d="M19 23.5C21.46 24.73 25 22.5 25 22.5C24.9455 23.0546 25.0062 23.6144 25.1783 24.1445C25.3503 24.6745 25.6301 25.1632 26 25.58C27.77 27.34 29.85 25.63 30 25.5C29.94 25.71 29.16 27.5 30.31 28.65C31.49 29.83 33.81 28.59 34 28.5C33.83 28.8 30.36 34.86 32.15 36.65C31.7885 36.4365 31.3926 36.2876 30.98 36.21C30.9361 35.6962 30.7577 35.203 30.4629 34.7799C30.168 34.3569 29.7669 34.0189 29.3 33.8L19 23.5Z" stroke="black" stroke-width="2" stroke-linejoin="round"/>
<path d="M52 38.5H32.31C32.7496 38.4371 33.1687 38.2735 33.5347 38.022C33.9007 37.7705 34.2037 37.4378 34.42 37.05C34.8952 37.3425 35.442 37.4982 36 37.5C36.7956 37.5 37.5587 37.1839 38.1213 36.6213C38.6839 36.0587 39 35.2956 39 34.5C40.79 34.49 42 32.5 42 32.5C42.0514 33.2057 42.3777 33.8631 42.9089 34.3307C43.44 34.7982 44.1334 35.0386 44.84 35C46.0431 34.9098 47.1695 34.3751 48 33.5C48 33.5 49.31 37.62 52 38.5Z" stroke="black" stroke-width="2" stroke-linejoin="round"/>
</svg>
