<svg width="120" height="70" viewBox="0 0 120 70" fill="none" xmlns="http://www.w3.org/2000/svg">
<g clip-path="url(#clip0_8_1065)">
<path fill-rule="evenodd" clip-rule="evenodd" d="M120 58.8976L119.993 58.8018C119.987 58.3505 119.948 57.9084 119.888 57.4718L116.251 11.0526L93.7537 7.36841H26.2632L3.76639 11.0526L0.153775 57.1495C-0.781718 62.6924 2.70154 68.1339 8.33887 69.6205C13.98 71.1052 19.7654 68.1026 21.7751 62.8397L33.7622 47.8947H86.2548L98.2306 62.8287C99.8316 67.0121 103.932 69.9981 108.752 69.9981C114.963 69.9981 120 65.0484 120 58.9474C120 58.9308 119.998 58.9142 119.998 58.8976H120Z" fill="white"/>
<path fill-rule="evenodd" clip-rule="evenodd" d="M45.0105 18.421C45.0105 22.4903 48.3682 25.7895 52.5095 25.7895H67.5074C71.6487 25.7895 75.0063 22.4903 75.0063 18.421V7.36841H45.0105V18.421Z" fill="#1A1A1A"/>
<path fill-rule="evenodd" clip-rule="evenodd" d="M22.5137 0H15.0148C10.8735 0 7.51582 3.29921 7.51582 7.36842V14.7368C7.51582 18.8061 10.8735 22.1053 15.0148 22.1053H22.5137C26.655 22.1053 30.0127 18.8061 30.0127 14.7368V7.36842C30.0127 3.29921 26.655 0 22.5137 0ZM105.002 0H97.5032C93.3619 0 90.0042 3.29921 90.0042 7.36842V14.7368C90.0042 18.8061 93.3619 22.1053 97.5032 22.1053H105.002C109.143 22.1053 112.501 18.8061 112.501 14.7368V7.36842C112.501 3.29921 109.143 0 105.002 0Z" fill="white"/>
<path d="M60.0084 36.8421C62.0792 36.8421 63.7579 35.1926 63.7579 33.1579C63.7579 31.1232 62.0792 29.4737 60.0084 29.4737C57.9376 29.4737 56.259 31.1232 56.259 33.1579C56.259 35.1926 57.9376 36.8421 60.0084 36.8421Z" fill="#808080"/>
<path fill-rule="evenodd" clip-rule="evenodd" d="M41.2611 25.7895C32.9766 25.7895 26.2632 32.3861 26.2632 40.5263C26.2632 48.6648 32.9766 55.2613 41.2611 55.2613C49.5437 55.2613 56.259 48.6648 56.259 40.5263C56.259 32.3861 49.5437 25.7895 41.2611 25.7895ZM78.7558 25.7895C70.4713 25.7895 63.7579 32.3861 63.7579 40.5263C63.7579 48.6648 70.4713 55.2613 78.7558 55.2613C87.0384 55.2613 93.7537 48.6648 93.7537 40.5263C93.7537 32.3861 87.0384 25.7895 78.7558 25.7895Z" fill="#666666"/>
<path fill-rule="evenodd" clip-rule="evenodd" d="M78.7558 33.1561C74.6126 33.1561 71.2568 36.4553 71.2568 40.5263C71.2568 44.5955 74.6126 47.8948 78.7558 47.8948C82.8971 47.8948 86.2547 44.5955 86.2547 40.5263C86.2547 36.4553 82.8971 33.1561 78.7558 33.1561ZM41.2611 33.1561C37.1198 33.1561 33.7621 36.4553 33.7621 40.5263C33.7621 44.5955 37.1198 47.8948 41.2611 47.8948C45.4024 47.8948 48.76 44.5955 48.76 40.5263C48.76 36.4553 45.4024 33.1561 41.2611 33.1561Z" fill="#B4B4B4"/>
<path fill-rule="evenodd" clip-rule="evenodd" d="M18.7643 3.6842C8.41015 3.6842 0.0169525 11.9313 0.0169525 22.1053C0.0169525 32.2774 8.41015 40.5263 18.7643 40.5263C29.1166 40.5263 37.5117 32.2774 37.5117 22.1053C37.5117 11.9313 29.1166 3.6842 18.7643 3.6842ZM101.253 3.6842C90.8985 3.6842 82.5054 11.9313 82.5054 22.1053C82.5054 32.2774 90.8985 40.5263 101.253 40.5263C111.605 40.5263 120 32.2774 120 22.1053C120 11.9313 111.605 3.6842 101.253 3.6842Z" fill="#333333"/>
<path fill-rule="evenodd" clip-rule="evenodd" d="M18.7642 18.421C20.8339 18.421 22.5137 16.7705 22.5137 14.7368C22.5137 12.7031 20.8339 11.0526 18.7642 11.0526C16.6926 11.0526 15.0148 12.7031 15.0148 14.7368C15.0148 16.7705 16.6908 18.421 18.7642 18.421ZM11.2653 18.421C9.19558 18.421 7.51582 20.0716 7.51582 22.1052C7.51582 24.1389 9.19558 25.7895 11.2653 25.7895C13.335 25.7895 15.0148 24.1389 15.0148 22.1052C15.0148 20.0716 13.335 18.421 11.2653 18.421ZM26.2632 18.421C24.1916 18.421 22.5137 20.0716 22.5137 22.1052C22.5137 24.1389 24.1916 25.7895 26.2632 25.7895C28.3329 25.7895 30.0127 24.1389 30.0127 22.1052C30.0127 20.0716 28.3329 18.421 26.2632 18.421ZM18.7642 25.7895C16.6926 25.7895 15.0148 27.44 15.0148 29.4737C15.0148 31.5074 16.6926 33.156 18.7642 33.156C20.8339 33.156 22.5137 31.5074 22.5137 29.4737C22.5137 27.44 20.8339 25.7895 18.7642 25.7895ZM101.253 18.421C103.322 18.421 105.002 16.7705 105.002 14.7368C105.002 12.7031 103.322 11.0526 101.253 11.0526C99.1829 11.0526 97.5032 12.7031 97.5032 14.7368C97.5032 16.7705 99.181 18.421 101.253 18.421ZM93.7537 18.421C91.6821 18.421 90.0042 20.0716 90.0042 22.1052C90.0042 24.1389 91.6821 25.7895 93.7537 25.7895C95.8234 25.7895 97.5032 24.1389 97.5032 22.1052C97.5032 20.0716 95.8234 18.421 93.7537 18.421ZM108.752 18.421C106.682 18.421 105.002 20.0716 105.002 22.1052C105.002 24.1389 106.682 25.7895 108.752 25.7895C110.821 25.7895 112.501 24.1389 112.501 22.1052C112.501 20.0716 110.821 18.421 108.752 18.421ZM101.253 25.7895C99.1829 25.7895 97.5032 27.44 97.5032 29.4737C97.5032 31.5074 99.1829 33.156 101.253 33.156C103.322 33.156 105.002 31.5074 105.002 29.4737C105.002 27.44 103.322 25.7895 101.253 25.7895Z" fill="#FF9A24"/>
</g>
<defs>
<clipPath id="clip0_8_1065">
<rect width="120" height="70" fill="white"/>
</clipPath>
</defs>
</svg>
