<svg width="64" height="64" viewBox="0 0 64 64" fill="none" xmlns="http://www.w3.org/2000/svg">
<path d="M38.088 41L40 29V28H4V29L5.912 41L7.382 51L9 62H35L38.088 41Z" fill="#FF826E"/>
<path d="M36.765 50H7.235L7.382 51L7.676 53H36.324L36.765 50Z" fill="#FC6E51"/>
<path d="M37.94 42.006C35.762 42.039 34 43.814 34 46C34 46.181 34.03 46.353 34.053 46.527C32.834 47.213 32 48.504 32 50H30V56.472L32.764 62H35L37.94 42.006Z" fill="#FC6E51"/>
<path d="M39 43.965V43C39 41.895 38.105 41 37 41H31L30.536 40.536C28.272 38.272 25.201 37 22 37C18.799 37 15.728 38.272 13.464 40.536L13 41H7C5.895 41 5 41.895 5 43V49C5 50.105 5.895 51 7 51H39V43.965Z" fill="#FCD770"/>
<path d="M32 52H60V56L57 62H35L32 56V52Z" fill="#E6E9ED"/>
<path d="M39 43.965V43C39 42.619 38.888 42.268 38.703 41.965C38.525 41.976 38.349 42 38.169 42H38C35.794 42 34 43.794 34 46C34 46.181 34.03 46.353 34.053 46.527C32.834 47.213 32 48.504 32 50C32 50.347 32.058 50.678 32.142 51H39V43.965Z" fill="#FFC729"/>
<path d="M50 48H56C57.105 48 58 48.895 58 50C58 51.105 57.105 52 56 52H36C34.895 52 34 51.105 34 50C34 48.895 34.895 48 36 48H42H50Z" fill="#FFEAA7"/>
<path d="M38 48C36.895 48 36 47.105 36 46C36 44.895 36.895 44 38 44H38.169C41.787 44 45.139 42.102 47 39C49.907 39 52.41 41.052 52.981 43.903L53 44H54C55.105 44 56 44.895 56 46C56 47.105 55.105 48 54 48H38Z" fill="#FFEAA7"/>
<path d="M32 56H53H55H60V52H32V56Z" fill="#CCD1D9"/>
<path d="M7 28L5 2H9L11 28H7Z" fill="#FCD770"/>
<path d="M18 8H14V28H18V8Z" fill="#FCD770"/>
<path d="M30 2H26V28H30V2Z" fill="#FCD770"/>
<path d="M30 12V28H34L35.556 10.889L30 12Z" fill="#FCD770"/>
<path d="M31.991 28H34L35.556 10.889L33.51 11.298L31.991 28Z" fill="#FFC729"/>
<path d="M34 28L36 6L40 7L38 28H34Z" fill="#FCD770"/>
<path d="M18 12V28H23L21.667 12H18Z" fill="#FCD770"/>
<path d="M20.993 28H23L21.667 12H19.66L20.993 28Z" fill="#FFC729"/>
<path d="M26 3V28H23L21 4L26 3Z" fill="#FCD770"/>
<path d="M14 17V28H11L10 16L14 17Z" fill="#FFC729"/>
<path d="M20 12H18V28H20V12Z" fill="#FFC729"/>
<path d="M24 28H26V3L24 3.4V28Z" fill="#FFC729"/>
<path d="M32 11.6L30 12V28H32V11.6Z" fill="#FFC729"/>
<path d="M35 26H34.182H10.846H9.99999H6.84599L6.99999 28H9.99999H11H34H35H38L38.19 26H35Z" fill="#FFC729"/>
<path d="M58.816 51C58.928 50.686 59 50.352 59 50C59 48.617 58.055 47.461 56.78 47.116C56.919 46.77 57 46.395 57 46C57 44.346 55.654 43 54 43H53.781C52.871 40.063 50.127 38 47 38H46.434L46.143 38.485C44.788 40.743 42.519 42.288 39.98 42.799C39.93 42.053 39.619 41.377 39.121 40.879L40.988 29.157L41 27H39.1L41.077 6.238L35.11 4.747L34.627 10.055L31 10.78V1H25V2.18L19.929 3.194L20.58 11H19V7H13V15.719L11.02 15.224L9.926 1H3.92L5.92 27H3V29L4.88 40.879C4.337 41.423 4 42.173 4 43V49C4 50.487 5.09 51.716 6.511 51.951L8.136 63H34.382H35H57.618L61 56.236V51H58.816ZM47.53 40.028C49.723 40.258 51.56 41.899 52 44.099L52.181 45H54C54.551 45 55 45.449 55 46C55 46.551 54.551 47 54 47H50V49H56C56.551 49 57 49.449 57 50C57 50.551 56.551 51 56 51H36C35.449 51 35 50.551 35 50C35 49.449 35.449 49 36 49H42V47H38C37.449 47 37 46.551 37 46C37 45.449 37.449 45 38 45H38.169C41.911 45 45.444 43.109 47.53 40.028ZM38.923 7.762L37.091 27H35.096L36.89 7.253L38.923 7.762ZM34.438 12.132L33.087 27H31V12.82L34.438 12.132ZM29 3V27H27V3H29ZM25 4.22V27H23.92L22.071 4.806L25 4.22ZM20.746 13L21.913 27H19V13H20.746ZM17 9V27H15V9H17ZM13 17.781V27H11.926L11.182 17.326L13 17.781ZM6.08 3H8.074L9.92 27H7.926L6.08 3ZM5.013 29H38.988L37.232 40.023C37.154 40.017 37.079 40 37 40H31.414L31.243 39.829C28.774 37.36 25.491 36 22 36C18.509 36 15.226 37.36 12.757 39.829L12.586 40H7C6.921 40 6.846 40.017 6.769 40.023L5.013 29ZM6 49V43C6 42.449 6.449 42 7 42H13.414L14.171 41.243C16.263 39.152 19.043 38 22 38C24.957 38 27.737 39.152 29.829 41.243L30.586 42H37C37.551 42 38 42.449 38 43C36.346 43 35 44.346 35 46C35 46.395 35.081 46.77 35.22 47.116C33.945 47.461 33 48.617 33 50H7C6.449 50 6 49.551 6 49ZM9.864 61L8.54 52H31V56.236L33.382 61H9.864ZM56.382 61H35.618L33.618 57H53V55H33V53H36H56H59V55H55V57H58.382L56.382 61Z" fill="black"/>
</svg>
