<svg width="64" height="64" viewBox="0 0 64 64" fill="none" xmlns="http://www.w3.org/2000/svg">
<path d="M57.216 20.48L50.56 9.08798C50.048 8.31998 49.152 7.80798 48.256 7.80798H3.456C2.304 7.80798 1.28 8.83198 1.28 9.98398V33.664C1.28 34.944 2.304 35.84 3.456 35.84H48.256C49.152 35.84 50.048 35.328 50.56 34.56L57.216 23.168C57.728 22.4 57.728 21.376 57.216 20.48ZM49.408 24.448C48 24.448 46.848 23.296 46.848 21.888C46.848 20.48 48 19.328 49.408 19.328C50.816 19.328 51.968 20.48 51.968 21.888C51.968 23.296 50.816 24.448 49.408 24.448Z" fill="#EC6E62"/>
<path d="M36.992 56.192C36.608 56.192 36.096 56.192 35.712 56.064C34.048 55.808 32.512 55.04 31.488 53.76C29.824 51.712 29.312 48.384 30.208 45.44C31.104 43.008 32.896 40.832 35.328 39.68C37.12 38.784 39.296 38.272 41.984 38.272C43.008 38.272 44.032 38.272 45.056 38.272C46.208 38.272 47.232 38.4 48.256 38.272C50.944 38.144 53.504 37.632 56.064 36.736C57.216 36.224 58.624 35.712 59.392 34.432C60.416 32.896 60.544 30.464 59.648 28.416C58.88 26.624 57.472 25.216 55.552 24.32C53.76 23.552 51.712 23.296 49.792 23.168C49.152 23.168 48.512 22.528 48.64 21.888C48.64 21.248 49.28 20.608 49.92 20.736C52.096 20.864 54.4 21.12 56.576 22.016C59.008 23.168 60.928 25.088 61.952 27.392C63.104 30.208 62.976 33.536 61.44 35.84C60.288 37.632 58.368 38.528 56.96 39.04C54.144 40.064 51.328 40.704 48.384 40.704C47.232 40.704 46.08 40.704 44.928 40.704C43.904 40.704 43.008 40.576 41.984 40.704C39.68 40.704 37.888 41.088 36.352 41.856C34.56 42.752 33.152 44.416 32.512 46.208C31.872 48.256 32.128 50.688 33.28 52.096C34.048 53.12 35.2 53.376 35.968 53.504C38.4 53.888 40.96 52.608 42.624 50.304C43.008 49.792 43.776 49.536 44.416 49.92C45.056 50.304 45.184 51.072 44.8 51.712C42.88 54.528 39.936 56.192 36.992 56.192Z" fill="#656766"/>
<path d="M9.984 18.688V21.12H14.08V22.528H9.984V26.24H8.448V17.152H14.464V18.56H9.984V18.688Z" fill="white"/>
<path d="M23.552 20.224C23.552 21.76 22.912 22.656 21.632 23.04L24.064 26.368H22.144L19.968 23.296H17.92V26.368H16.384V17.28H19.712C21.12 17.28 22.144 17.536 22.656 17.92C23.296 18.432 23.552 19.2 23.552 20.224ZM21.504 21.504C21.76 21.248 22.016 20.864 22.016 20.224C22.016 19.584 21.888 19.2 21.504 18.944C21.12 18.688 20.608 18.56 19.84 18.56H17.92V21.76H19.84C20.608 21.888 21.248 21.76 21.504 21.504Z" fill="white"/>
<path d="M32.128 17.28V18.688H27.264V21.12H31.616V22.528H27.264V24.96H32.256V26.368H25.728V17.28H32.128Z" fill="white"/>
<path d="M40.704 17.28V18.688H35.84V21.12H40.192V22.528H35.84V24.96H40.832V26.368H34.304V17.28H40.704Z" fill="white"/>
</svg>
