<svg width="64" height="64" viewBox="0 0 64 64" fill="none" xmlns="http://www.w3.org/2000/svg">
<path fill-rule="evenodd" clip-rule="evenodd" d="M37.0667 58.9666C36.7333 58.9666 36.4 58.9666 36.0667 58.9333C24.6333 58.4333 15.5333 49.0333 15.3667 37.6C15.2667 31.7333 17.5 26.2 21.6 22.0333C25.7 17.8666 31.2 15.5667 37.0667 15.5667C37.5667 15.5667 38.0667 15.6 38.6 15.6333C39.0333 15.6667 39.4 15.9667 39.5 16.4C39.6 16.8333 39.4333 17.2667 39.0667 17.5C34.5667 20.3333 31.8 25.6 31.8 31.2667C31.8 40 38.2667 47.1333 46.2 47.1333C50 47.1333 53.6 45.5 56.3 42.5666C56.4667 42.3666 56.7333 42.2667 56.9667 42.2667C57.2667 42.2667 57.5333 42.4 57.7 42.6333C57.8667 42.8666 57.9333 43.1667 57.8333 43.4333C55.1333 52.6 46.6 58.9666 37.0667 58.9666Z" fill="#FFCF48"/>
<path d="M37.0667 16.3334C37.5667 16.3334 38.0667 16.3667 38.5333 16.4C38.8 16.4334 38.8667 16.7334 38.6667 16.8667C34.1333 19.7334 31.0667 25.1 31.0667 31.2667C31.0667 40.4334 37.8333 47.8667 46.2 47.8667C50.3667 47.8667 54.1333 46.0334 56.8667 43.0667C56.9 43.0334 56.9333 43 57 43C57.1 43 57.2 43.1 57.1667 43.2334C54.6 51.9 46.5667 58.2 37.1 58.2C36.7667 58.2 36.4667 58.2 36.1333 58.1667C25.1333 57.6667 16.3333 48.5667 16.1667 37.5667C15.9333 25.8667 25.3667 16.3334 37.0667 16.3334ZM37.0667 14.8334C31 14.8334 25.3333 17.2 21.0667 21.5334C16.8 25.8334 14.5333 31.5667 14.6 37.6334C14.7 43.3334 16.9333 48.7667 20.9333 52.9C24.9333 57.0334 30.3 59.4667 36 59.7C36.3333 59.7 36.7 59.7334 37.0333 59.7334C41.9667 59.7334 46.6667 58.1667 50.5667 55.2C54.3667 52.3334 57.2 48.2334 58.5333 43.7C58.7 43.2 58.6 42.6334 58.2667 42.2334C57.9667 41.8 57.4333 41.5667 56.9333 41.5667C56.4667 41.5667 56.0333 41.7667 55.7 42.1C53.1333 44.9 49.7333 46.4334 46.1333 46.4334C38.6 46.4334 32.5 39.6667 32.5 31.3334C32.5 25.9 35.1333 20.8667 39.4 18.2C40.0333 17.8 40.3667 17.0334 40.1667 16.2667C39.9667 15.5334 39.3333 15 38.6 14.9334C38.1 14.8667 37.5667 14.8334 37.0667 14.8334Z" fill="black"/>
<path fill-rule="evenodd" clip-rule="evenodd" d="M19.4333 37.6C19.2667 26.5 27.7667 17.3334 38.6 16.4334C38.5667 16.4334 38.5333 16.4 38.5 16.4C38 16.3667 37.5333 16.3334 37.0333 16.3334C25.3667 16.3334 15.9333 25.8667 16.1 37.6C16.2667 48.6 25.0667 57.7 36.0667 58.2C36.9667 58.2334 37.8667 58.2334 38.7333 58.1667C28.0667 57.3334 19.6 48.3667 19.4333 37.6Z" fill="#FFBC33"/>
<path fill-rule="evenodd" clip-rule="evenodd" d="M19.4333 16.1334C19.1333 16.1334 18.6667 16.0001 18.6667 15.1334C18.6667 12.6667 16.6667 10.6667 14.2 10.6667C14.0667 10.6667 14 10.6667 13.9333 10.6667C13.4333 10.6001 13.2 10.2334 13.2 9.90008C13.2 9.66675 13.3 9.13341 14.2 9.13341C16.6667 9.13341 18.6667 7.13341 18.6667 4.66675C18.6667 3.76675 19.2 3.66675 19.4333 3.66675C19.6667 3.66675 20.2 3.76675 20.2 4.66675C20.2 7.13341 22.2 9.13341 24.6667 9.13341C25.5667 9.13341 25.6667 9.66675 25.6667 9.90008C25.6667 10.2334 25.4333 10.6001 24.9333 10.6667C24.8667 10.6667 24.7667 10.6667 24.6667 10.6667C22.2 10.6667 20.2 12.6667 20.2 15.1334C20.2 15.2667 20.2 15.3667 20.2 15.4001C20.1333 15.9001 19.7667 16.1334 19.4333 16.1334Z" fill="#FFBC33"/>
<path d="M19.4333 4.3667C19.4333 4.3667 19.4667 4.4667 19.4667 4.63337C19.4667 7.53337 21.8 9.8667 24.7 9.8667C25.0333 9.8667 25.0667 9.93337 24.7 9.93337C21.8 9.93337 19.4667 12.2667 19.4667 15.1667C19.4667 15.3334 19.4667 15.4334 19.4333 15.4334C19.4333 15.4334 19.4 15.3334 19.4 15.1667C19.4 12.2667 17.0667 9.93337 14.1667 9.93337C13.8333 9.93337 13.8333 9.8667 14.1667 9.8667C17.0667 9.8667 19.4 7.53337 19.4 4.63337C19.4 4.4667 19.4 4.3667 19.4333 4.3667ZM19.4333 2.8667C19.3667 2.8667 17.9 2.90003 17.9 4.63337C17.9 6.70003 16.2333 8.3667 14.1667 8.3667C12.4333 8.3667 12.4 9.83337 12.4 9.90003C12.4 10.5667 12.8667 11.3 13.8 11.4C13.9 11.4 14.0333 11.4 14.1667 11.4C16.2333 11.4 17.9 13.0667 17.9 15.1334C17.9 16.8667 19.3667 16.9 19.4333 16.9C19.5 16.9 20.9667 16.8667 20.9667 15.1334C20.9667 13.0667 22.6333 11.4 24.7 11.4C26.4333 11.4 26.4667 9.93337 26.4667 9.8667C26.4667 9.80003 26.4333 8.33337 24.7 8.33337C22.6333 8.33337 20.9667 6.6667 20.9667 4.60003C20.9667 2.90003 19.5 2.8667 19.4333 2.8667Z" fill="black"/>
<path fill-rule="evenodd" clip-rule="evenodd" d="M11.0333 25.6334C10.9 25.6334 10.2667 25.6001 10.2667 24.7001C10.2667 23.1334 9.00001 21.8668 7.43334 21.8668C7.33334 21.8668 7.26667 21.8668 7.23334 21.8668C6.73334 21.8001 6.53334 21.4334 6.53334 21.1001C6.53334 20.9668 6.56667 20.3334 7.46667 20.3334C9.03334 20.3334 10.3 19.0668 10.3 17.5001C10.3 16.6334 10.9333 16.5668 11.0667 16.5668C11.2 16.5668 11.8333 16.6001 11.8333 17.5001C11.8333 19.0668 13.1 20.3334 14.6667 20.3334C15.5667 20.3334 15.6 20.9668 15.6 21.1001C15.6 21.2334 15.5667 21.8668 14.6667 21.8668C13.1 21.8668 11.8333 23.1334 11.8333 24.7001C11.8333 24.8001 11.8333 24.8668 11.8333 24.9001C11.7333 25.4001 11.3667 25.6334 11.0333 25.6334Z" fill="#FFBC33"/>
<path d="M11.0333 17.3C11.0333 17.3 11.0667 17.3667 11.0667 17.4667C11.0667 19.4334 12.6667 21.0667 14.6667 21.0667C14.9 21.0667 14.9 21.1 14.6667 21.1C12.7 21.1 11.0667 22.7 11.0667 24.7C11.0667 24.8334 11.0667 24.8667 11.0333 24.8667C11.0333 24.8667 11 24.8 11 24.7C11 22.7334 9.4 21.1 7.4 21.1C7.16667 21.1 7.16667 21.0667 7.4 21.0667C9.36667 21.0667 11 19.4667 11 17.4667C11.0333 17.3667 11.0333 17.3 11.0333 17.3ZM11.0333 15.8C10.5 15.8 9.5 16.1667 9.5 17.4667C9.5 18.6334 8.56667 19.5667 7.4 19.5667C6.06667 19.5667 5.73334 20.5667 5.73334 21.1C5.73334 21.6334 6.1 22.6334 7.4 22.6334C8.56667 22.6334 9.5 23.5667 9.5 24.7334C9.5 26.0667 10.5 26.4 11.0333 26.4C11.5667 26.4 12.5667 26.0334 12.5667 24.7334C12.5667 23.5667 13.5 22.6334 14.6667 22.6334C16 22.6334 16.3333 21.6334 16.3333 21.1C16.3333 20.4334 15.8667 19.7 14.9333 19.6C14.8333 19.6 14.7333 19.6 14.6333 19.6C13.4667 19.6 12.5333 18.6667 12.5333 17.5C12.5667 16.1667 11.5667 15.8 11.0333 15.8Z" fill="black"/>
</svg>
