<svg width="115" height="74" viewBox="0 0 115 74" fill="none" xmlns="http://www.w3.org/2000/svg">
<rect width="115" height="74" fill="#303030"/>
<path d="M113.678 69.5548C113.678 71.2793 112.145 72.6787 110.251 72.6787H4.74937C2.85649 72.6787 1.32184 71.2793 1.32184 69.5548V4.44671C1.32184 2.72093 2.85649 1.32153 4.74937 1.32153H110.251C112.145 1.32153 113.678 2.72093 113.678 4.44671V69.5548Z" fill="#303030"/>
<path fill-rule="evenodd" clip-rule="evenodd" d="M70.8083 32.6143C70.4659 31.0299 69.7336 29.838 68.7052 28.9368C68.351 28.5628 67.9227 28.2985 67.4362 28.0184C67.1904 27.877 67.0133 27.7898 66.692 27.6682C66.1593 27.466 65.4588 27.2295 64.589 27.318C65.0252 27.0973 65.6742 27.0881 66.3404 27.0987C66.8943 27.1581 67.3543 27.3114 67.8288 27.4488C68.2267 27.6642 68.6206 27.8836 69.0119 28.1056C69.9715 25.2381 69.6041 21.3121 68.5307 18.7829C67.4931 16.1295 65.9835 13.9452 64.0219 12.2181C62.092 10.4553 59.7735 9.08098 56.7082 8.4533C55.1921 8.12559 53.2846 8.17844 51.8914 8.49691C50.4361 8.88012 49.2266 9.50912 48.1704 10.2914C47.1883 11.1622 46.2353 12.0621 45.5876 13.2673C45.3536 13.5012 45.2545 13.8685 45.0615 14.1434C44.9266 14.4751 44.776 14.7909 44.6239 15.1054C44.3979 15.7978 44.1388 16.4585 44.0106 17.2514C43.6603 18.6838 43.5969 20.6527 43.8361 22.1975C44.0159 23.8559 44.5023 25.2077 45.0192 26.5304C45.3377 27.1462 45.6272 27.7898 45.9815 28.3686C46.3172 28.9526 46.7323 29.4561 47.1209 29.9886C48.0026 30.9453 48.9503 31.8347 50.0541 32.572C52.2906 34.0282 54.8576 35.1528 58.3737 35.3285C58.4438 35.1858 58.2799 34.9004 58.2429 34.7167C58.19 34.5066 58.1688 34.2648 58.1093 34.0599C58.0604 33.5882 58.0446 33.0385 58.1093 32.572C58.2495 32.6077 58.2455 32.7861 58.3301 32.8773C58.4054 32.9632 58.4332 33.0966 58.5495 33.1402C58.6368 33.3873 58.8284 33.5314 58.9434 33.7534C59.2739 34.0943 59.5303 34.5079 59.9507 34.759C60.2851 35.0973 60.7306 35.3219 61.1337 35.5915C61.5673 35.8148 61.9387 36.0989 62.4476 36.2469C63.3174 36.7054 64.4833 36.8667 65.6438 37.0358C66.8137 37.1944 67.9412 37.3939 69.0145 37.6489C70.0033 37.9885 71.0105 38.3083 71.8168 38.8303C72.2425 39.0761 72.6628 39.3285 73.0422 39.6192C73.2285 39.7685 73.4625 39.8689 73.6119 40.0566C73.8432 40.1478 73.9437 40.3671 74.1816 40.4504C74.8623 41.0979 75.5325 41.7546 76.1101 42.5078C76.3481 42.9413 76.6719 43.2875 76.8543 43.7777C77.0143 43.9535 77.0606 44.2429 77.2046 44.4332C77.2139 44.6816 77.4545 44.9802 77.2483 45.1771C76.9231 45.2247 76.9892 44.8811 76.8543 44.7397C76.7486 44.5679 76.6164 44.4213 76.5464 44.2164C76.0348 43.6786 75.5761 43.0866 75.0157 42.5964C74.4605 42.1154 73.9146 41.6238 73.2642 41.2393C72.0415 40.375 70.6245 39.7077 68.9735 39.269C67.349 38.7999 65.5262 38.6109 63.4139 38.7457C62.486 38.8673 61.6003 39.0351 60.8297 39.3139C60.0009 39.5201 59.0769 39.6324 58.1583 39.7513C54.5748 39.972 50.5854 39.1184 47.9127 37.8273C46.4877 37.1666 45.1752 36.3909 44.0608 35.4197C43.4515 34.9797 42.9531 34.426 42.4403 33.8882C41.9723 33.3199 41.478 32.7768 41.1264 32.0937C40.6584 31.5109 40.3808 30.7379 39.9869 30.0811C39.7318 29.3015 39.3683 28.6276 39.1991 27.762C38.9308 26.9797 38.7669 26.0931 38.6744 25.1363C38.6585 24.8734 38.5408 24.3659 38.5422 23.9537C38.5422 23.9167 38.5898 23.8849 38.5858 23.8228C38.566 23.4489 38.4774 22.8741 38.5858 22.5543C38.566 21.6861 38.7219 20.6197 38.8925 19.7964C39.0498 18.9177 39.2824 18.1169 39.5494 17.3465C39.8098 16.5576 40.1548 15.852 40.4681 15.1146C40.6783 14.8001 40.8382 14.4354 41.0365 14.109C41.2044 13.7654 41.4555 13.5064 41.6075 13.1457C41.7754 13.0519 41.8058 12.8193 41.9565 12.7083C42.0239 12.5141 42.2063 12.4321 42.2631 12.2273C42.4072 12.1084 42.5209 11.9591 42.6134 11.7886C42.7469 11.6591 42.8857 11.5362 42.9637 11.3499C43.4858 10.8358 43.9525 10.2663 44.4957 9.77473C45.0377 9.26598 45.6444 8.82198 46.2035 8.33041C46.5591 8.16127 46.8156 7.89169 47.1672 7.71859C47.4342 7.47412 47.8228 7.35123 48.0872 7.10544C48.8142 6.77641 49.4368 6.34694 50.2299 6.08927C50.9133 5.73644 51.7328 5.51973 52.5074 5.25809C54.1875 4.82598 55.8847 4.52998 57.9785 4.60134C58.0552 4.61059 58.0922 4.52602 58.1107 4.60134C62.0788 4.72027 64.971 5.91616 67.4376 7.53359C69.8816 9.16027 71.7732 11.3393 73.1294 14.0562C74.4552 16.7466 75.2007 20.4017 74.5755 24.2536C74.2622 25.9834 73.756 27.5189 73.1294 28.9368C72.7712 29.6001 72.4526 30.3031 72.0349 30.907C71.8525 31.2334 71.6569 31.5492 71.4216 31.8267C71.3436 31.9945 71.2312 32.132 71.1176 32.2641C71.066 32.3447 71.0012 32.4121 70.9418 32.4835C70.9206 32.5218 70.9034 32.5614 70.8545 32.5707C70.8638 32.6487 70.8109 32.6605 70.8083 32.6143Z" fill="#F68E1F"/>
<path fill-rule="evenodd" clip-rule="evenodd" d="M69.7574 33.7521C69.2432 33.5499 69.1573 32.9223 68.9247 32.4386C68.8837 32.2616 68.8467 31.9946 68.9247 31.8255C68.959 31.8176 68.9683 31.7819 69.0119 31.7819C69.1415 31.6986 69.2631 31.8043 69.4494 31.8691C69.7006 32.1572 69.8619 32.5364 69.9742 32.9632C69.9848 33.3094 70.0112 33.6702 69.7574 33.7521Z" fill="#F68E1F"/>
<path fill-rule="evenodd" clip-rule="evenodd" d="M65.9043 33.008C65.9135 32.9578 65.9492 32.9829 65.9492 33.008C66.7251 33.1058 67.0807 33.6251 67.1309 34.4523C67.0609 34.9095 66.8058 35.1778 66.3867 35.2835C65.3412 35.3007 64.7463 34.3387 65.1178 33.3569C65.3253 33.1877 65.4734 32.9565 65.9043 33.008Z" fill="#F68E1F"/>
<path fill-rule="evenodd" clip-rule="evenodd" d="M44.8883 62.1574C45.0126 62.69 45.2849 63.0758 45.5889 63.4287C45.8916 63.7828 46.2498 64.0788 46.6834 64.3034C47.0879 64.5545 47.528 64.7712 48.0396 64.9153C48.2881 65.0038 48.526 65.1029 48.8274 65.1333C49.0363 65.2483 49.2967 65.3104 49.3099 65.6156C49.2993 65.983 49.0521 66.1164 48.7402 66.1852C48.4269 66.1191 48.0383 66.1283 47.7765 66.0094C47.113 65.9301 46.5803 65.7174 46.0251 65.5284C44.9557 65.1095 44.0622 64.5136 43.31 63.7775C43.1567 63.5225 42.9492 63.3229 42.7853 63.0772C42.6227 62.8314 42.513 62.5327 42.3464 62.2909C41.0457 62.1178 40.1561 61.5324 39.3696 60.8453C38.6466 60.022 38.0769 59.0442 37.8363 57.7373C37.56 56.4819 37.6446 54.92 37.9685 53.7096C38.6849 51.364 40.1971 49.8074 43.047 49.5959C43.8335 49.6211 44.5195 49.7162 45.1487 49.9474C45.7806 50.1761 46.3833 50.5976 46.8565 51.0403C46.8949 51.0759 46.9121 51.0799 46.9438 51.1275C47.0429 51.2755 47.2888 51.4737 47.4249 51.6521C47.4514 51.6864 47.4408 51.7446 47.4685 51.7842C47.5227 51.8569 47.5994 51.8913 47.6444 51.96C47.6734 52.0036 47.6629 52.0498 47.6893 52.0908C47.7223 52.145 47.7686 52.2216 47.8202 52.3102C47.84 52.3445 47.8942 52.3723 47.9061 52.3974C47.9814 52.5401 48.0145 52.7172 48.0819 52.8784C48.1519 53.0449 48.2458 53.1942 48.3013 53.3594C48.4679 53.8615 48.5789 54.4482 48.6516 55.0653C48.8221 56.8281 48.4731 58.4019 47.8202 59.5741C47.5122 60.1859 47.0892 60.6841 46.5935 61.1056C46.1335 61.5654 45.5003 61.8522 44.8883 62.1574ZM42.7866 51.1275C42.4046 51.1552 42.1759 51.3336 41.8666 51.4341C41.663 51.623 41.4079 51.7631 41.2533 52.0036C41.0008 52.1437 40.9321 52.4701 40.7285 52.659C40.558 53.0845 40.3941 53.5563 40.2896 54.1047C40.1879 54.6438 40.1191 55.2569 40.1152 55.8556C40.1046 57.362 40.4258 58.8592 41.0338 59.7511C41.3868 60.1846 41.8177 60.5427 42.3477 60.8003C42.6518 60.8294 42.8937 60.9259 43.2228 60.9325C43.4052 60.8664 43.7172 60.9285 43.8361 60.8003C44.1045 60.8215 44.1706 60.6391 44.4045 60.6246C44.5275 60.4991 44.6689 60.3933 44.8434 60.3193C45.0007 60.1409 45.154 59.9599 45.3245 59.7947C45.4131 59.6639 45.4607 59.4921 45.5876 59.3996C46.349 57.9434 46.4362 55.2728 45.9379 53.5787C45.7554 52.9577 45.4871 52.4582 45.1937 52.0472C44.8711 51.7129 44.4904 51.4367 44.0556 51.2147C43.7053 51.142 43.3761 51.0482 42.9175 51.0852C42.891 51.0865 42.8659 51.0905 42.8725 51.1275C42.8461 51.1275 42.8157 51.1275 42.7866 51.1275Z" fill="#0269B3"/>
<path fill-rule="evenodd" clip-rule="evenodd" d="M52.0249 49.9026C52.7123 49.9304 53.512 49.8458 54.1253 49.9475C54.2628 50.1629 54.2086 50.41 54.2126 50.6466C54.2615 53.859 54.2126 57.3 54.2126 60.5824C54.2126 60.8467 54.2192 61.1123 54.2126 61.3713C54.206 61.5893 54.2615 61.8272 54.1253 62.028C53.8173 62.1047 53.3824 62.0716 52.9872 62.0716C52.5748 62.0716 52.1664 62.1271 51.8927 61.9831C51.8187 58.1021 51.8187 53.9158 51.8927 50.0347C51.9179 49.97 51.9628 49.9264 52.0249 49.9026Z" fill="#0269B3"/>
<path fill-rule="evenodd" clip-rule="evenodd" d="M57.2792 49.9026C57.9652 49.9026 58.6526 49.9026 59.3373 49.9026C59.5224 50.155 59.5805 50.5356 59.644 50.9109C60.2613 53.2683 60.8759 55.631 61.4377 58.044C61.5712 58.0611 61.5289 57.9013 61.5699 57.8246C61.6307 57.7691 61.5977 57.6185 61.6571 57.563C61.6823 57.3687 61.7986 57.267 61.7893 57.0384C61.9453 56.7424 61.9916 56.3354 62.1383 56.0314C62.3194 55.3218 62.5507 54.6611 62.7529 53.974C62.9459 53.2617 63.209 52.6195 63.3663 51.8716C63.6558 51.273 63.7245 50.4524 64.0669 49.9026C64.3577 49.9026 64.6485 49.9026 64.9406 49.9026C65.2565 50.492 65.3689 51.2862 65.6425 51.9165C65.817 52.6301 66.0681 53.2696 66.2545 53.974C66.6881 55.335 67.1322 56.6855 67.5248 58.0876C67.6993 57.8246 67.7006 57.3885 67.8301 57.0806C67.9068 56.7318 67.9729 56.3763 68.0919 56.0737C68.4316 54.6889 68.7488 53.2881 69.144 51.9601C69.2921 51.2624 69.4348 50.5568 69.6675 49.9476C70.1751 49.8749 70.9589 49.8749 71.4625 49.9476C71.5075 50.4616 71.2656 51.0193 71.1136 51.4778C71.0316 52.0407 70.8228 52.4715 70.7183 53.0093C70.4064 53.9964 70.1645 55.0536 69.842 56.0301C69.5948 57.0806 69.2643 58.0493 69.0105 59.0945C68.8427 59.5808 68.7184 60.1133 68.573 60.6247C68.4025 61.0965 68.3443 61.6819 68.0905 62.0704C67.6821 62.0704 67.275 62.0704 66.8652 62.0704C66.5532 61.5206 66.4422 60.7727 66.1646 60.1886C65.5552 58.2567 64.8732 56.4001 64.2823 54.4536C64.0748 54.669 64.0801 55.0959 63.932 55.372C63.8395 55.7024 63.7456 56.0328 63.6254 56.3354C63.4601 57.0027 63.2024 57.5749 63.0556 58.2607C62.8124 58.8646 62.6313 59.5279 62.4436 60.1886C62.1859 60.7621 62.0933 61.5008 61.7867 62.0268C61.4615 62.1245 60.9579 62.0439 60.5613 62.0704C60.252 61.7215 60.2229 61.0938 60.0339 60.6247C59.8872 60.1331 59.7854 59.5914 59.5977 59.1368C59.3638 58.0704 59.0069 57.1282 58.765 56.0737C58.4477 55.0945 58.1781 54.0638 57.8886 53.0529C57.7313 52.5693 57.607 52.05 57.4511 51.5663C57.3784 51.0391 57.0228 50.566 57.1444 49.9899C57.1801 49.9489 57.2263 49.9238 57.2792 49.9026Z" fill="#0269B3"/>
<path fill-rule="evenodd" clip-rule="evenodd" d="M74.5742 49.9026C75.2602 49.9304 76.0599 49.8458 76.6759 49.9475C76.8266 50.4087 76.7632 50.8963 76.7632 51.3905C76.7632 54.3677 76.7632 57.5391 76.7632 60.5824C76.7632 61.0806 76.8266 61.5655 76.6759 62.028C76.2027 62.0822 75.5061 62.1007 74.9245 62.0716C74.7579 62.0637 74.5544 62.1113 74.4433 61.9831C74.2926 61.5285 74.3561 61.0396 74.3561 60.5388C74.3561 57.5801 74.3561 54.5514 74.3561 51.4355C74.3561 50.8831 74.3045 50.3545 74.4433 49.9898C74.4751 49.9489 74.5226 49.9237 74.5742 49.9026Z" fill="#0269B3"/>
<path fill-rule="evenodd" clip-rule="evenodd" d="M62.2705 67.1034C62.5401 67.2421 62.8243 67.3664 63.0147 67.5844C63.172 67.8328 63.2513 68.3019 63.1455 68.6799C62.7569 69.4873 61.4047 69.5533 60.3882 69.2904C60.3882 67.965 60.3882 66.6369 60.3882 65.3089C60.6882 65.1556 61.1628 65.1794 61.6135 65.1768C61.9096 65.2151 62.1978 65.2613 62.4463 65.3512C62.7701 65.5534 63.0477 65.9815 62.8838 66.5339C62.7265 66.773 62.5851 67.0241 62.2705 67.1034ZM62.2705 66.4903C62.3815 65.6538 61.7008 65.5111 61.0002 65.6155C61.0002 66.0819 61.0002 66.5484 61.0002 67.0175C61.6505 67.069 62.0815 66.8999 62.2705 66.4903ZM62.4886 68.5477C62.712 67.6491 61.9096 67.217 61.0438 67.41C60.942 67.8487 61.0293 68.4764 61.0002 68.9851C61.6466 69.0353 62.2374 68.9944 62.4886 68.5477Z" fill="#0269B3"/>
<path fill-rule="evenodd" clip-rule="evenodd" d="M52.4188 65.2218C52.514 65.6949 52.4374 66.3397 52.4625 66.8855C52.4889 66.9661 52.6462 66.8088 52.637 66.7097C52.7136 66.6542 52.8101 66.6186 52.8128 66.4904C52.9621 66.3754 53.0824 66.2353 53.1644 66.053C53.4591 65.8231 53.6059 65.4438 53.9086 65.2218C54.0698 65.2363 54.2959 65.1848 54.3897 65.2654C54.2403 65.6407 53.9482 65.8746 53.7328 66.1838C53.5292 66.4917 53.2543 66.7269 53.0758 67.0599C53.3018 67.4735 53.627 67.7907 53.8636 68.1963C54.1412 68.5611 54.4598 68.8848 54.6528 69.3341C54.4941 69.4253 54.1782 69.3579 53.9522 69.3777C53.6852 69.0606 53.4671 68.6945 53.208 68.3708C52.9899 68.0034 52.6938 67.7167 52.5074 67.3202C52.4043 67.903 52.4929 68.6773 52.4625 69.3328C52.3316 69.42 52.0487 69.3579 51.8505 69.3764C51.7738 68.1105 51.7804 66.3424 51.8505 65.2192C52.0395 65.2218 52.2298 65.2218 52.4188 65.2218Z" fill="#0269B3"/>
<path fill-rule="evenodd" clip-rule="evenodd" d="M58.3737 66.4043C58.4385 66.3766 58.3697 66.3502 58.3737 66.4043C57.6137 67.3677 56.9382 68.4129 56.1834 69.3802C56.0089 69.3802 55.8345 69.3802 55.6587 69.3802C55.586 68.0958 55.586 66.5061 55.6587 65.223C55.8199 65.223 55.9799 65.223 56.1398 65.223C56.1398 66.2722 56.1398 67.3241 56.1398 68.3746C56.1781 68.4922 56.2455 68.2834 56.272 68.2425C56.3328 68.1711 56.3949 68.105 56.4451 68.0244C56.5377 67.8672 56.6619 67.743 56.7518 67.5857C56.958 67.2963 57.1907 67.032 57.3651 66.7109C57.6242 66.4731 57.7564 66.1097 58.0221 65.8784C58.0829 65.6921 58.2058 65.5666 58.3288 65.4423C58.3407 65.1899 58.6275 65.2124 58.8985 65.223C58.8707 66.5946 58.9566 68.0826 58.8549 69.3802C58.7095 69.3802 58.5627 69.3802 58.4173 69.3802C58.3169 68.4737 58.4028 67.3835 58.3737 66.4043Z" fill="#0269B3"/>
<path fill-rule="evenodd" clip-rule="evenodd" d="M64.9406 65.2667C64.9406 66.23 64.9406 67.192 64.9406 68.1553C64.9816 68.2743 65.0477 68.0642 65.0741 68.0245C65.1627 68.0113 65.1614 67.9069 65.205 67.8488C65.3266 67.751 65.3689 67.5739 65.5103 67.4986C65.6438 67.192 65.8725 66.9859 66.0377 66.7097C66.4145 66.2274 66.7528 65.7054 67.1309 65.2218C67.3054 65.2218 67.4812 65.2218 67.6557 65.2218C67.7284 66.5062 67.7284 68.0959 67.6557 69.379C67.5103 69.379 67.3622 69.379 67.2181 69.379C67.1164 68.4157 67.201 67.2634 67.1732 66.2274C67.1362 66.1441 67.1481 66.2749 67.0873 66.2697C67.0661 66.3093 67.0489 66.3489 67 66.3582C66.9947 66.4692 66.9194 66.5115 66.8678 66.5762C66.7714 66.7269 66.6709 66.8749 66.5612 67.0149C66.3682 67.3162 66.1289 67.5726 65.9505 67.8897C65.739 68.1752 65.4997 68.4315 65.3358 68.7645C65.0318 68.9574 65.0701 69.4913 64.4608 69.3777C64.3881 68.0932 64.3881 66.5035 64.4608 65.2204C64.6207 65.2363 64.8481 65.1848 64.9406 65.2667Z" fill="#0269B3"/>
</svg>
