<svg width="54" height="54" viewBox="0 0 54 54" fill="none" xmlns="http://www.w3.org/2000/svg">
<path d="M25.1067 35.7735C24.992 35.9002 24.8851 36.0338 24.7867 36.1735C24.6857 36.3221 24.605 36.4836 24.5467 36.6535C24.4698 36.8047 24.4158 36.9664 24.3867 37.1335C24.3736 37.311 24.3736 37.4893 24.3867 37.6668C24.3776 38.0166 24.4507 38.3637 24.6 38.6802C24.7198 39.0111 24.9108 39.3116 25.1597 39.5605C25.4085 39.8093 25.7091 40.0004 26.04 40.1202C26.3592 40.2612 26.7043 40.3341 27.0533 40.3341C27.4023 40.3341 27.7475 40.2612 28.0667 40.1202C28.3976 40.0004 28.6981 39.8093 28.947 39.5605C29.1958 39.3116 29.3869 39.0111 29.5067 38.6802C29.6251 38.3559 29.6794 38.0118 29.6667 37.6668C29.6687 37.3159 29.6014 36.968 29.4687 36.6431C29.336 36.3182 29.1405 36.0227 28.8933 35.7735C28.6454 35.5236 28.3505 35.3252 28.0255 35.1898C27.7006 35.0544 27.352 34.9847 27 34.9847C26.648 34.9847 26.2994 35.0544 25.9745 35.1898C25.6495 35.3252 25.3546 35.5236 25.1067 35.7735ZM27 0.333496C21.7258 0.333496 16.5701 1.89747 12.1848 4.82764C7.79947 7.75781 4.38154 11.9226 2.3632 16.7953C0.344867 21.668 -0.183222 27.0297 0.845718 32.2026C1.87466 37.3754 4.41441 42.1269 8.14381 45.8563C11.8732 49.5857 16.6248 52.1255 21.7976 53.1544C26.9704 54.1834 32.3322 53.6553 37.2049 51.637C42.0776 49.6186 46.2423 46.2007 49.1725 41.8154C52.1027 37.4301 53.6667 32.2743 53.6667 27.0002C53.6667 23.4982 52.9769 20.0306 51.6368 16.7953C50.2967 13.5599 48.3324 10.6202 45.8562 8.14398C43.3799 5.66775 40.4402 3.7035 37.2049 2.36338C33.9695 1.02325 30.5019 0.333496 27 0.333496ZM27 48.3335C22.7807 48.3335 18.6561 47.0823 15.1478 44.7382C11.6396 42.394 8.90523 39.0622 7.29056 35.1641C5.67589 31.2659 5.25342 26.9765 6.07657 22.8382C6.89972 18.7 8.93153 14.8987 11.915 11.9152C14.8986 8.9317 18.6998 6.8999 22.8381 6.07674C26.9763 5.25359 31.2657 5.67606 35.1639 7.29073C39.0621 8.9054 42.3939 11.6397 44.738 15.148C47.0821 18.6562 48.3333 22.7808 48.3333 27.0002C48.3333 32.6581 46.0857 38.0843 42.0849 42.0851C38.0842 46.0859 32.6579 48.3335 27 48.3335ZM27 13.6668C25.5948 13.6659 24.2142 14.0352 22.9971 14.7373C21.78 15.4395 20.7692 16.4499 20.0667 17.6668C19.8737 17.9703 19.7442 18.3097 19.6858 18.6646C19.6274 19.0195 19.6414 19.3825 19.727 19.7319C19.8126 20.0812 19.9679 20.4096 20.1837 20.6973C20.3995 20.9851 20.6712 21.2262 20.9826 21.4061C21.294 21.5861 21.6385 21.7013 21.9955 21.7446C22.3526 21.788 22.7147 21.7587 23.0601 21.6585C23.4055 21.5583 23.7271 21.3893 24.0055 21.1615C24.2838 20.9338 24.5133 20.6522 24.68 20.3335C24.9149 19.9265 25.2532 19.5889 25.6607 19.3548C26.0681 19.1206 26.5301 18.9983 27 19.0002C27.7072 19.0002 28.3855 19.2811 28.8856 19.7812C29.3857 20.2813 29.6667 20.9596 29.6667 21.6668C29.6667 22.3741 29.3857 23.0523 28.8856 23.5524C28.3855 24.0525 27.7072 24.3335 27 24.3335C26.2927 24.3335 25.6145 24.6144 25.1144 25.1145C24.6143 25.6146 24.3333 26.2929 24.3333 27.0002V29.6668C24.3333 30.3741 24.6143 31.0523 25.1144 31.5524C25.6145 32.0525 26.2927 32.3335 27 32.3335C27.7072 32.3335 28.3855 32.0525 28.8856 31.5524C29.3857 31.0523 29.6667 30.3741 29.6667 29.6668V29.1868C31.4303 28.5469 32.9129 27.3074 33.8554 25.6851C34.7978 24.0629 35.1401 22.1609 34.8224 20.3119C34.5047 18.4628 33.5472 16.7842 32.1173 15.5695C30.6874 14.3549 28.8761 13.6814 27 13.6668Z" fill="#FF9A24"/>
</svg>
