<svg width="86" height="84" viewBox="0 0 86 84" fill="none" xmlns="http://www.w3.org/2000/svg">
<path d="M0.0789557 21.0459C0.869214 22.8903 2.03403 26.2248 2.02886 29.8518C2.02822 30.2875 2.30714 30.6824 2.7306 30.7739C3.71578 30.986 5.3579 31.694 5.3579 34.0538C5.3579 34.0538 5.3579 36.1688 3.44439 37.0111C3.08168 37.1706 2.85207 37.5359 2.89149 37.9319C3.28027 41.8417 5.0794 61.0823 4.44401 76.241C4.44401 76.241 6.30754 77.4906 8.1 78.6163C8.66302 78.9699 9.4059 78.6909 9.59393 78.0507C9.94523 76.8558 10.4693 75.0039 10.8417 73.3807C10.8417 73.3807 12.059 76.9672 12.1603 80.6594C12.1747 81.1839 12.5936 81.6018 13.1149 81.6268C15.6633 81.7487 22.7755 81.5828 27.6992 76.5475C27.6992 76.5475 37.6012 68.5801 47.172 72.053C47.172 72.053 59.6443 49.0833 48.9018 12.15C48.9018 12.15 45.2764 12.1004 41.6803 12.9803C41.1573 13.1083 40.7623 13.5371 40.6888 14.0733C40.4905 15.5218 40.0349 18.4731 39.3995 20.2993C39.2791 20.6457 38.7844 20.6236 38.6866 20.2703C38.4044 19.2509 37.956 17.5948 37.5444 15.9172C37.3667 15.1936 36.6438 14.7551 35.929 14.9516C34.079 15.4603 30.3132 16.822 24.8557 20.3658C24.8557 20.3658 17.0408 25.3508 8.61241 21.9476C7.97206 21.6891 7.3399 21.425 6.6849 21.2068C5.36544 20.7677 3.08943 20.0668 1.08374 19.7321C0.352713 19.6099 -0.214618 20.3615 0.0789557 21.0459Z" fill="url(#paint0_linear_101_21)"/>
<path d="M47.1718 72.0528C47.1718 72.0528 59.644 49.0831 48.9016 12.1498C48.9016 12.1498 46.979 12.1254 44.5479 12.4501C45.7649 19.4056 50.1222 48.6676 41.839 71.1782C43.5838 71.1548 45.3834 71.4037 47.1718 72.0528Z" fill="#F79A80"/>
<path d="M14.292 33.1698C13.7074 33.2652 13.2777 33.773 13.2777 34.3688V40.1062C13.2777 40.7772 13.8183 41.3208 14.4852 41.3208H14.914C15.6166 41.3208 16.1708 40.72 16.118 40.0152L15.6892 34.2778C15.6362 33.568 14.9905 33.0561 14.292 33.1698Z" fill="#E2526F"/>
<path d="M19.5289 34.5711V38.8542C19.5289 39.4731 20.219 39.8386 20.7262 39.4883L22.7369 38.0998C23.3128 37.702 23.545 36.9606 23.2997 36.3028C23.2047 36.0478 23.0438 35.8232 22.8333 35.6518L20.7747 33.9738C20.275 33.5661 19.5289 33.924 19.5289 34.5711Z" fill="#E2526F"/>
<path d="M24.5298 32.9135V33.2136C24.5298 33.7496 24.9283 34.2007 25.4572 34.2639C26.0827 34.3389 26.6328 33.8473 26.6328 33.2136V32.9135C26.6328 32.4237 26.2983 31.9977 25.8247 31.8846C25.1639 31.7265 24.5298 32.2302 24.5298 32.9135Z" fill="#E2526F"/>
<path d="M32.4407 29.9841C32.083 30.146 31.8661 30.5173 31.899 30.9101L32.2439 35.0031C32.3533 36.302 33.7947 37.0347 34.8888 36.3364C35.16 36.1633 35.4262 35.9822 35.6709 35.7987C36.4543 35.2107 36.5895 34.0837 35.9789 33.3158L33.5414 30.251C33.2782 29.9198 32.8252 29.8099 32.4407 29.9841Z" fill="#E2526F"/>
<path d="M36.5175 29.4037L37.8324 31.2553C38.1499 31.7022 38.8372 31.5982 39.0099 31.0772L39.3472 30.0598C39.4233 29.8301 39.3707 29.5773 39.21 29.3975L38.1486 28.2113C37.9356 27.9732 37.5854 27.9192 37.3114 28.0826L36.7206 28.4349C36.3839 28.6355 36.29 29.0833 36.5175 29.4037Z" fill="#E2526F"/>
<path d="M46.5872 24.8581L44.0263 25.2648C43.5124 25.3464 43.1656 25.8326 43.2591 26.3474C43.4368 27.3247 43.7473 28.9269 44.1275 30.4571C44.3438 31.3259 45.5346 31.4182 45.8801 30.5927L47.7434 26.1387C48.0002 25.5252 47.5522 24.8466 46.8903 24.8466H46.7316C46.6835 24.8466 46.6351 24.8505 46.5872 24.8581Z" fill="#E2526F"/>
<path d="M14.6047 57.5955L14.5194 58.3449C14.45 58.9539 14.7804 59.5378 15.3366 59.7885C15.866 60.0272 16.4867 59.9122 16.8971 59.4995L17.5348 58.8579C17.9449 58.4454 18.0593 57.8208 17.8219 57.2883L17.7737 57.1804C17.5484 56.6747 17.0487 56.3493 16.4979 56.3493H15.9937C15.2832 56.3493 14.6857 56.8855 14.6047 57.5955Z" fill="#E2526F"/>
<path d="M15.3138 64.7102L15.6087 63.0051C15.6707 62.6472 15.9796 62.3857 16.341 62.3857H20.053C20.8631 62.3857 21.0888 63.5043 20.3425 63.8219L16.3356 65.5267C15.7937 65.7573 15.213 65.2934 15.3138 64.7102Z" fill="#E2526F"/>
<path d="M26.7115 53.9164L27.4417 60.5131C27.4903 60.9536 27.9052 61.2547 28.3362 61.1616C28.9836 61.0216 29.874 60.792 30.4289 60.4951C30.688 60.3565 30.8355 60.0748 30.8138 59.7804L30.556 56.3033C30.5402 56.0923 30.6143 55.8845 30.7595 55.7313L31.6385 54.8052C31.7705 54.6661 31.8442 54.4812 31.8442 54.2889V53.2608C31.8442 52.8022 31.4371 52.4516 30.9865 52.5223L27.3361 53.0951C26.9426 53.1566 26.6673 53.5187 26.7115 53.9164Z" fill="#E2526F"/>
<path d="M34.4622 52.4858L34.6179 53.4449C34.714 54.0375 35.4304 54.2799 35.8633 53.8663C36.0111 53.7253 36.0946 53.5292 36.0946 53.3242V52.3374C36.0946 51.872 35.6764 51.5195 35.2208 51.6014L35.0651 51.6294C34.6653 51.7013 34.3967 52.0826 34.4622 52.4858Z" fill="#E2526F"/>
<path d="M39.1904 51.1632L37.5571 57.5946C37.4261 58.11 37.8573 58.5942 38.3811 58.5199L39.6394 58.341C39.9367 58.2989 40.1768 58.0836 40.2531 57.7915C40.451 57.0348 41.0293 55.6087 42.6139 55.2803C42.9095 55.219 43.1354 54.9757 43.1839 54.676L43.362 53.5824C43.4059 53.3116 43.2989 53.0379 43.0828 52.8702L40.3646 50.757C39.9418 50.4279 39.3226 50.6424 39.1904 51.1632Z" fill="#E2526F"/>
<path d="M50.3707 48.1413L48.1092 49.2281C47.7863 49.3832 47.6192 49.7474 47.7111 50.0951L49.0521 55.1564C49.2514 55.9086 50.3186 55.8952 50.4937 55.1371C50.9432 53.193 51.4397 50.6298 51.4367 48.8038C51.4356 48.2577 50.8605 47.9058 50.3707 48.1413Z" fill="#C7304D"/>
<path d="M48.2336 29.5309L47.6691 31.0822C47.5752 31.3398 47.7958 31.6022 48.0639 31.5525L49.218 31.3376C49.4418 31.296 49.5682 31.0549 49.4758 30.8456L48.8865 29.5091C48.7579 29.2179 48.3426 29.2317 48.2336 29.5309Z" fill="#C7304D"/>
<path d="M47.1718 9.70485C47.1718 9.70485 50.0164 5.92271 56.584 2.81979C61.4096 0.54015 66.7898 -0.395362 72.0933 0.152773C74.6336 0.415358 77.1284 1.01441 78.388 2.2814C78.388 2.2814 77.5292 9.33632 74.5233 19.4149C74.5231 19.4149 53.7442 21.4473 47.1718 9.70485Z" fill="#A34F46"/>
<path d="M60.8403 9.77458L61.8124 18.6912C68.4377 20.0056 74.5233 19.4146 74.5233 19.4146C77.5292 9.33607 78.388 2.28137 78.388 2.28137C78.388 2.28137 74.0227 10.4165 60.8403 9.77458Z" fill="#F79A80"/>
<path d="M86 13.9497C86 13.9497 82.3125 10.1319 74.5806 9.7746L72.7726 19.5492C72.7728 19.5492 83.3175 19.3171 86 13.9497Z" fill="#A34F46"/>
<path d="M72.241 7.65682C71.6248 10.8039 70.208 15.4102 66.7751 19.3724C71.1902 19.7359 74.5233 19.4144 74.5233 19.4144C77.5292 9.33589 78.388 2.28119 78.388 2.28119C78.388 2.28119 76.6955 5.43178 72.241 7.65682Z" fill="#CE735F"/>
<path d="M47.1718 9.70483C47.1718 9.70483 60.4662 22.4404 86 13.95C86 13.95 81.3575 60.86 73.3386 77.6286C73.3386 77.6286 68.6936 82.6606 64.0063 83.9605C63.3586 84.1401 62.7038 83.686 62.5968 83.0189L61.7324 77.6286C61.7324 77.6286 60.6889 80.603 59.0754 83.3745C58.7915 83.8622 58.2052 84.079 57.679 83.8808C55.3843 83.0168 49.1113 80.546 44.456 77.6925C43.5031 77.1086 43.1587 75.8932 43.6698 74.8959C46.772 68.8439 56.0875 46.473 47.1718 9.70483Z" fill="url(#paint1_linear_101_21)"/>
<path d="M70.1494 16.8479C71.8705 18.4382 74.7147 21.9842 74.3492 27.8674C74.3492 27.8674 74.0016 49.4847 70.133 70.8419C69.5172 74.242 68.1469 77.4882 65.9472 80.1433C65.6006 80.5616 65.2258 80.9783 64.8213 81.3856C64.4782 81.7313 63.9038 81.6594 63.6725 81.2298L61.7322 77.6281L62.5966 83.0183C62.7036 83.6854 63.3584 84.1395 64.0061 83.9601C68.6934 82.6601 73.3384 77.6281 73.3384 77.6281C81.3573 60.8597 85.9998 13.9495 85.9998 13.9495C80.0424 15.9308 74.7606 16.7465 70.1494 16.8479Z" fill="#F79A80"/>
<path d="M46.8905 24.8466H46.7318C46.6833 24.8466 46.6351 24.8505 46.5872 24.8581L46.1534 24.9268C46.2732 26.2739 46.3813 27.6948 46.4739 29.1732L47.7437 26.1387C48.0006 25.5252 47.5526 24.8466 46.8905 24.8466Z" fill="#9C304D"/>
<defs>
<linearGradient id="paint0_linear_101_21" x1="1.93291" y1="27.2884" x2="67.2315" y2="71.3923" gradientUnits="userSpaceOnUse">
<stop offset="0.0103" stop-color="#FFDDCD"/>
<stop offset="1" stop-color="#F79A80"/>
</linearGradient>
<linearGradient id="paint1_linear_101_21" x1="49.5099" y1="30.7483" x2="109.439" y2="87.6787" gradientUnits="userSpaceOnUse">
<stop offset="0.0103" stop-color="#FFDDCD"/>
<stop offset="1" stop-color="#F79A80"/>
</linearGradient>
</defs>
</svg>
