<svg width="64" height="64" viewBox="0 0 64 64" fill="none" xmlns="http://www.w3.org/2000/svg">
<path d="M32 61C48.0163 61 61 48.0163 61 32C61 15.9837 48.0163 3 32 3C15.9837 3 3 15.9837 3 32C3 48.0163 15.9837 61 32 61Z" fill="#F8DC25"/>
<path opacity="0.7" d="M26.5 53.5C20.0319 53.508 13.6823 51.7646 8.125 48.455C11.808 53.7891 17.1718 57.7356 23.3603 59.6643C29.5487 61.5931 36.205 61.3929 42.2664 59.0958C48.3277 56.7987 53.4448 52.5371 56.8006 46.9913C60.1563 41.4455 61.5574 34.9353 60.78 28.5C58.4501 35.7604 53.875 42.0936 47.7142 46.5866C41.5534 51.0796 34.1251 53.5004 26.5 53.5Z" fill="#F2BC0F"/>
<path d="M31.25 53.25C31.25 53.25 39.25 54 42.5 47.75" stroke="#393C54" stroke-width="6" stroke-miterlimit="10" stroke-linecap="round"/>
<path d="M17 38C18.933 38 20.5 36.433 20.5 34.5C20.5 32.567 18.933 31 17 31C15.067 31 13.5 32.567 13.5 34.5C13.5 36.433 15.067 38 17 38Z" fill="#393C54"/>
<path d="M43.5 35.5C43.5 34.5717 43.8688 33.6815 44.5251 33.0251C45.1815 32.3688 46.0717 32 47 32C47.9283 32 48.8185 32.3688 49.4749 33.0251C50.1312 33.6815 50.5 34.5717 50.5 35.5" stroke="#393C54" stroke-width="4" stroke-miterlimit="10" stroke-linecap="round"/>
<path opacity="0.7" fill-rule="evenodd" clip-rule="evenodd" d="M15.065 24.4999C19.88 24.2699 25.5 25.2449 26.565 28.4999C27.03 29.9399 26.565 31.6149 26.285 32.7799C25.5 36.2199 24.26 38.5349 21.43 39.9999C16.62 42.4499 10.695 41.2399 8.385 37.5649C7.1 35.4999 5.815 30.7449 7.12 27.8599C8.24 25.3899 11.145 24.7049 15.065 24.4999Z" fill="#6B718E"/>
<path d="M8.7 32.33C8.50715 31.2708 8.53439 30.1832 8.78 29.135" stroke="white" stroke-width="2" stroke-linecap="round" stroke-linejoin="round"/>
<path d="M10.155 27.5C10.6847 27.2334 11.2482 27.04 11.83 26.925" stroke="white" stroke-width="2" stroke-linecap="round" stroke-linejoin="round"/>
<path opacity="0.7" fill-rule="evenodd" clip-rule="evenodd" d="M47.5 24.5C51.385 24.315 55.06 25.095 56.5 27.13C58.325 29.715 57.175 35.215 55.66 37.63C53.48 41.08 47.815 42.63 42.715 40.13C39.715 38.68 38.27 36.015 37.495 32.355C36.04 25.65 41.165 24.815 47.5 24.5Z" fill="#6B718E"/>
<path d="M39.42 31.95C39.08 30.345 39.185 29.17 39.735 28.45" stroke="white" stroke-width="2" stroke-linecap="round" stroke-linejoin="round"/>
<path d="M41.5 27.36C42.1641 27.134 42.8467 26.9667 43.54 26.86" stroke="white" stroke-width="2" stroke-linecap="round" stroke-linejoin="round"/>
<path d="M49.355 22.635C45.9387 22.5962 42.5319 23.0012 39.22 23.84C36.82 24.475 34.565 25.59 31.995 25.585C31.75 25.585 31.495 25.585 31.245 25.55C28.56 25.315 26 24.05 23.275 23.435C20.5093 22.8463 17.6876 22.5613 14.86 22.585C11.3909 22.6101 7.92832 22.8892 4.5 23.42C3.85016 23.5178 3.2613 23.8576 2.85145 24.3713C2.4416 24.885 2.24105 25.5346 2.29 26.19C2.29 26.365 2.315 26.54 2.33 26.69C2.36314 27.3583 2.65764 27.9868 3.15 28.44C4.875 29.94 4.715 33.59 5.25 35.84C5.67 37.61 6.34 39.435 7.685 40.84C10.47 43.7 17.375 44.34 21.85 42.485C25.885 40.78 27.5 37.695 29 33.385C29.43 32.15 30 30.24 30.88 29.845C34.075 28.425 34.74 32.78 35.38 34.54C37.31 39.86 40.515 43.165 47.095 43.54C53.21 43.89 56.89 41.57 58.36 37.335C59.195 34.935 58.825 31.755 59.965 29.59C60.1416 29.2628 60.3853 28.9766 60.68 28.75C60.962 28.5196 61.193 28.233 61.3583 27.9085C61.5236 27.5839 61.6195 27.2286 61.64 26.865C61.64 26.64 61.64 26.41 61.675 26.175C61.6978 25.5328 61.4829 24.9048 61.0714 24.4112C60.6599 23.9176 60.0808 23.5931 59.445 23.5C56.1077 22.9623 52.7351 22.6731 49.355 22.635ZM26.275 32.815C25.5 36.22 24.26 38.535 21.43 40C16.62 42.45 10.695 41.24 8.385 37.565C7.105 35.5 5.815 30.745 7.12 27.86C8.24 25.39 11.12 24.705 15.06 24.52C19.875 24.29 25.495 25.265 26.56 28.52C27 30 26.545 31.65 26.275 32.815ZM55.625 37.625C53.445 41.075 47.78 42.625 42.68 40.125C39.68 38.675 38.235 36.01 37.46 32.35C36.04 25.65 41.165 24.815 47.5 24.5C51.385 24.315 55.06 25.095 56.5 27.13C58.285 29.73 57.14 35.235 55.625 37.625Z" fill="#393C54"/>
<path opacity="0.5" d="M41.5 16L50.5 18.5" stroke="#F2BC0F" stroke-width="4" stroke-linecap="round" stroke-linejoin="round"/>
<path opacity="0.5" d="M13.5 18.5L22.5 16" stroke="#F2BC0F" stroke-width="4" stroke-linecap="round" stroke-linejoin="round"/>
</svg>
