<svg width="48" height="48" viewBox="0 0 48 48" fill="none" xmlns="http://www.w3.org/2000/svg">
<path d="M12.8957 47.8882C14.7589 47.8744 16.6139 47.6405 18.4222 47.1914C24.667 45.6847 31.0976 41.8626 36.5265 36.4289C41.9553 30.9953 45.7822 24.5635 47.2889 18.3247C48.8754 11.7619 47.7439 6.14724 44.1064 2.50972L43.0678 1.47111C42.1255 0.530676 40.8485 0.00250244 39.5172 0.00250244C38.1859 0.00250244 36.909 0.530676 35.9667 1.47111L29.9982 7.43836C29.0572 8.38037 28.5286 9.65742 28.5286 10.9889C28.5286 12.3204 29.0572 13.5975 29.9982 14.5395L33.5238 18.0639C31.8337 21.0296 29.5349 23.9978 26.8181 26.7146C24.1012 29.4314 21.1307 31.7314 18.1662 33.4215L14.6418 29.8959C14.1756 29.4296 13.6221 29.0596 13.0129 28.8072C12.4036 28.5548 11.7507 28.4249 11.0912 28.4249C10.4318 28.4249 9.77881 28.5548 9.16959 28.8072C8.56038 29.0596 8.00686 29.4296 7.54065 29.8959L1.57341 35.8632C0.632168 36.8048 0.10342 38.0817 0.10342 39.4132C0.10342 40.7446 0.632168 42.0215 1.57341 42.9631L2.61321 44.0017C5.17757 46.5709 8.72695 47.8882 12.8957 47.8882ZM39.5172 3.57335C39.7074 3.5724 39.8958 3.60942 40.0715 3.68223C40.2472 3.75504 40.4066 3.86218 40.5404 3.99737L41.5802 5.03598C44.3041 7.75995 45.0998 12.1824 43.8206 17.4814C42.4663 23.0949 38.9801 28.9276 34.005 33.9015C29.0299 38.8754 23.1984 42.3581 17.5837 43.7171C12.2835 44.9963 7.86343 44.2006 5.13946 41.4767L4.10085 40.4381C3.82948 40.1665 3.67705 39.7983 3.67705 39.4143C3.67705 39.0304 3.82948 38.6622 4.10085 38.3906L10.0669 32.4234C10.3385 32.152 10.7067 31.9996 11.0906 31.9996C11.4745 31.9996 11.8428 32.152 12.1143 32.4234L16.582 36.8911C16.8501 37.1593 17.1966 37.3353 17.5713 37.3935C17.946 37.4517 18.3296 37.3892 18.6664 37.215C22.3289 35.3212 26.0212 32.5639 29.3443 29.2408C32.6674 25.9178 35.4188 22.2278 37.3173 18.5653C37.4917 18.2286 37.5544 17.8451 37.4963 17.4704C37.4383 17.0957 37.2626 16.7492 36.9945 16.4809L32.5257 12.0132C32.2543 11.7417 32.1019 11.3734 32.1019 10.9895C32.1019 10.6056 32.2543 10.2374 32.5257 9.9658L38.4929 3.99737C38.6271 3.86241 38.7867 3.75544 38.9626 3.68265C39.1384 3.60986 39.3269 3.57271 39.5172 3.57335Z" fill="#FF9A24"/>
<path d="M10.9876 26.4095C11.4614 26.4095 11.9159 26.2213 12.2509 25.8862C12.586 25.5512 12.7742 25.0967 12.7742 24.6229C12.7777 21.4886 14.0242 18.4837 16.2403 16.2674C18.4565 14.051 21.4613 12.8042 24.5955 12.8004C25.0694 12.8004 25.5238 12.6121 25.8589 12.2771C26.1939 11.942 26.3821 11.4876 26.3821 11.0138C26.3821 10.5399 26.1939 10.0855 25.8589 9.75046C25.5238 9.4154 25.0694 9.22717 24.5955 9.22717C16.1068 9.22717 9.201 16.1354 9.201 24.6229C9.201 25.0967 9.38923 25.5512 9.72429 25.8862C10.0593 26.2213 10.5138 26.4095 10.9876 26.4095Z" fill="#FF9A24"/>
<path d="M3.43624 26.4095C3.91007 26.4095 4.3645 26.2213 4.69955 25.8863C5.03461 25.5512 5.22284 25.0968 5.22284 24.6229C5.22284 13.9403 13.9176 5.24904 24.5955 5.24904C25.0694 5.24904 25.5238 5.06081 25.8589 4.72576C26.1939 4.39071 26.3821 3.93628 26.3821 3.46244C26.3821 2.98861 26.1939 2.53418 25.8589 2.19913C25.5238 1.86407 25.0694 1.67584 24.5955 1.67584C11.9428 1.67584 1.64964 11.9702 1.64964 24.6229C1.64964 25.0968 1.83787 25.5512 2.17292 25.8863C2.50797 26.2213 2.9624 26.4095 3.43624 26.4095Z" fill="#FF9A24"/>
</svg>
