<svg width="83" height="83" viewBox="0 0 83 83" fill="none" xmlns="http://www.w3.org/2000/svg">
<path d="M8.3 0C3.71591 0 0 3.3781 0 7.54545V18.8636V60.3636V71.6818V75.4545C0 79.6234 3.71591 83 8.3 83H16.6H66.4H74.7C79.2858 83 83 79.6234 83 75.4545V71.6818V60.3636V18.8636V7.54545C83 3.3781 79.2858 0 74.7 0H66.4V11.3182V67.9091V71.6818H16.6V67.9091V11.3182V0H8.3ZM6.225 7.54545H10.375C11.5208 7.54545 12.45 8.38979 12.45 9.43182V13.2045C12.45 14.2466 11.5208 15.0909 10.375 15.0909H6.225C5.07919 15.0909 4.15 14.2466 4.15 13.2045V9.43182C4.15 8.38979 5.07919 7.54545 6.225 7.54545ZM72.625 7.54545H76.775C77.9204 7.54545 78.85 8.38979 78.85 9.43182V13.2045C78.85 14.2466 77.9204 15.0909 76.775 15.0909H72.625C71.4796 15.0909 70.55 14.2466 70.55 13.2045V9.43182C70.55 8.38979 71.4796 7.54545 72.625 7.54545ZM6.225 18.8636H10.375C11.5208 18.8636 12.45 19.708 12.45 20.75V24.5227C12.45 25.5648 11.5208 26.4091 10.375 26.4091H6.225C5.07919 26.4091 4.15 25.5648 4.15 24.5227V20.75C4.15 19.708 5.07919 18.8636 6.225 18.8636ZM72.625 18.8636H76.775C77.9204 18.8636 78.85 19.708 78.85 20.75V24.5227C78.85 25.5648 77.9204 26.4091 76.775 26.4091H72.625C71.4796 26.4091 70.55 25.5648 70.55 24.5227V20.75C70.55 19.708 71.4796 18.8636 72.625 18.8636ZM6.225 30.1818H10.375C11.5208 30.1818 12.45 31.0262 12.45 32.0682V35.8409C12.45 36.8822 11.5208 37.7273 10.375 37.7273H6.225C5.07919 37.7273 4.15 36.8822 4.15 35.8409V32.0682C4.15 31.0262 5.07919 30.1818 6.225 30.1818ZM72.625 30.1818H76.775C77.9204 30.1818 78.85 31.0262 78.85 32.0682V35.8409C78.85 36.8822 77.9204 37.7273 76.775 37.7273H72.625C71.4796 37.7273 70.55 36.8822 70.55 35.8409V32.0682C70.55 31.0262 71.4796 30.1818 72.625 30.1818ZM6.225 41.5H10.375C11.5208 41.5 12.45 42.3451 12.45 43.3864V47.1591C12.45 48.2004 11.5208 49.0455 10.375 49.0455H6.225C5.07919 49.0455 4.15 48.2004 4.15 47.1591V43.3864C4.15 42.3451 5.07919 41.5 6.225 41.5ZM72.625 41.5H76.775C77.9204 41.5 78.85 42.3451 78.85 43.3864V47.1591C78.85 48.2004 77.9204 49.0455 76.775 49.0455H72.625C71.4796 49.0455 70.55 48.2004 70.55 47.1591V43.3864C70.55 42.3451 71.4796 41.5 72.625 41.5ZM6.225 52.8182H10.375C11.5208 52.8182 12.45 53.6633 12.45 54.7045V58.4773C12.45 59.5185 11.5208 60.3636 10.375 60.3636H6.225C5.07919 60.3636 4.15 59.5185 4.15 58.4773V54.7045C4.15 53.6633 5.07919 52.8182 6.225 52.8182ZM72.625 52.8182H76.775C77.9204 52.8182 78.85 53.6633 78.85 54.7045V58.4773C78.85 59.5185 77.9204 60.3636 76.775 60.3636H72.625C71.4796 60.3636 70.55 59.5185 70.55 58.4773V54.7045C70.55 53.6633 71.4796 52.8182 72.625 52.8182ZM6.225 64.1364H10.375C11.5208 64.1364 12.45 64.9815 12.45 66.0227V69.7955C12.45 70.8367 11.5208 71.6818 10.375 71.6818H6.225C5.07919 71.6818 4.15 70.8367 4.15 69.7955V66.0227C4.15 64.9815 5.07919 64.1364 6.225 64.1364ZM72.625 64.1364H76.775C77.9204 64.1364 78.85 64.9815 78.85 66.0227V69.7955C78.85 70.8367 77.9204 71.6818 76.775 71.6818H72.625C71.4796 71.6818 70.55 70.8367 70.55 69.7955V66.0227C70.55 64.9815 71.4796 64.1364 72.625 64.1364Z" fill="#305172"/>
<path d="M66.4 56.5909H16.6V79.2272H66.4V56.5909Z" fill="#E74C3C"/>
<path d="M66.4 0H16.6V26.4091H66.4V0Z" fill="#E74C3C"/>
<path d="M66.4 22.6364H16.6V60.3636H66.4V22.6364Z" fill="#E74C3C"/>
<path d="M66.4 0H16.6V79.2273H66.4V0Z" fill="#3D5B78"/>
<path d="M33.2 52.5765L33.5991 29.9401L53.9492 41.5878L33.2 52.5765Z" fill="#ECF0F1"/>
</svg>
