<svg width="93" height="34" viewBox="0 0 93 34" fill="none" xmlns="http://www.w3.org/2000/svg">
<path fill-rule="evenodd" clip-rule="evenodd" d="M32.228 1.34731L27.095 32.8928H35.3073L40.441 1.34731H32.228ZM20.1854 1.34731L12.3554 23.044L11.4293 18.372L11.4299 18.3735L11.2258 17.3263C10.2782 15.2841 8.08347 11.4026 3.93925 8.09006C2.71403 7.11093 1.47897 6.27531 0.285034 5.56153L7.40119 32.8928H15.9578L29.0244 1.34731H20.1854ZM52.2368 10.105C52.2368 6.53846 60.235 6.99674 63.7494 8.93334L64.9213 2.15821C64.9213 2.15821 61.3045 0.782715 57.5345 0.782715C53.4588 0.782715 43.7806 2.56509 43.7806 11.2256C43.7806 19.3762 55.1399 19.4775 55.1399 23.7567C55.1399 28.0359 44.9518 27.2712 41.5896 24.5718L40.3677 31.6534C40.3677 31.6534 44.0346 33.4357 49.6388 33.4357C55.2423 33.4357 63.6982 30.5327 63.6982 22.6361C63.6982 14.4345 52.2368 13.6706 52.2368 10.105ZM85.7493 1.34731H79.1464C76.0974 1.34731 75.355 3.69822 75.355 3.69822L63.1076 32.8928H71.6675L73.3799 28.2074H83.8204L84.7836 32.8928H92.3243L85.7493 1.34731ZM75.7466 21.7339L80.0621 9.92887L82.4898 21.7339H75.7466Z" fill="#005BAC"/>
</svg>
