<svg width="64" height="64" viewBox="0 0 64 64" fill="none" xmlns="http://www.w3.org/2000/svg">
<path d="M45 22.05L11.62 55.3801C11.4231 55.5772 11.1893 55.7336 10.9319 55.8403C10.6745 55.947 10.3986 56.0019 10.12 56.0019C9.84138 56.0019 9.56549 55.947 9.30811 55.8403C9.05072 55.7336 8.8169 55.5772 8.62001 55.3801C8.42287 55.1832 8.26647 54.9493 8.15977 54.6919C8.05306 54.4346 7.99814 54.1587 7.99814 53.8801C7.99814 53.6014 8.05306 53.3255 8.15977 53.0681C8.26647 52.8108 8.42287 52.5769 8.62001 52.3801L42 19.05L45 22.05Z" fill="#897564"/>
<path d="M42 19.05L41.56 19.49L43.39 21.33L9.99999 54.6501C9.60511 55.046 9.0692 55.269 8.50999 55.2701L8.59999 55.3801C8.79689 55.5772 9.03071 55.7336 9.2881 55.8403C9.54548 55.947 9.82137 56.0019 10.1 56.0019C10.3786 56.0019 10.6545 55.947 10.9119 55.8403C11.1693 55.7336 11.4031 55.5772 11.6 55.3801L45 22.05L42 19.05Z" fill="#5DF9E6"/>
<path d="M9 54.28L42.27 21L44.16 22.89L44.95 22.1L41.95 19.1L8.62 52.38C8.26047 52.7416 8.04335 53.2208 8.00845 53.7295C7.97355 54.2383 8.12322 54.7426 8.43 55.15C8.54443 54.817 8.74039 54.5179 9 54.28Z" fill="#B59B88"/>
<path d="M10.12 57C9.5018 57.0016 8.89709 56.8194 8.3826 56.4767C7.86811 56.134 7.46703 55.6461 7.23025 55.0751C6.99347 54.504 6.93168 53.8755 7.0527 53.2693C7.17372 52.663 7.47211 52.1064 7.91 51.67L41.91 17.67L46.32 22.08L12.32 56.08C11.7356 56.6632 10.9456 56.9935 10.12 57ZM42 20.47L9.33 53.08C9.22508 53.1842 9.14181 53.308 9.08498 53.4445C9.02816 53.5809 8.9989 53.7272 8.9989 53.875C8.9989 54.0229 9.02816 54.1692 9.08498 54.3056C9.14181 54.4421 9.22508 54.5659 9.33 54.67C9.43325 54.7747 9.55625 54.8577 9.69187 54.9144C9.82748 54.9711 9.97301 55.0003 10.12 55.0003C10.267 55.0003 10.4125 54.9711 10.5481 54.9144C10.6837 54.8577 10.8067 54.7747 10.91 54.67L43.53 22.05L42 20.47Z" fill="#041256"/>
<path d="M47.21 27L52.92 21.29L54.91 9.08997L42.71 11.08L37 16.79L35.01 28.99L47.21 27Z" fill="#283D77"/>
<path d="M54.91 9.08997L35.01 28.99L47.21 27L52.92 21.29L54.91 9.08997Z" fill="#212E5E"/>
<path d="M42.71 11.08L42.61 11.18L44.96 19.04L52.82 21.39L52.92 21.29L54.91 9.08997L42.71 11.08Z" fill="#283D77"/>
<path d="M39.33 24.67L37.09 17.17L35.18 28.82L46.83 26.91L39.33 24.67Z" fill="#2F4984"/>
<path d="M39.33 24.67L35.18 28.82L46.83 26.91L39.33 24.67Z" fill="#283D77"/>
<path d="M50.77 20.95L46.39 25.34L37.08 26.92L34.5 29.29L46.7 27.2999L52.41 21.59L50.77 20.95Z" fill="#5DF9E6"/>
<path d="M42.71 11.08L42.61 11.18L44.96 19.04L54.91 9.08997L42.71 11.08Z" fill="#2F4984"/>
<path d="M37.65 18.83L37.73 18.33L43.44 12.62L55.03 10.73L55.22 9.53003L43.02 11.52L37.31 17.23L35.32 29.43L35.92 29.33L37.63 18.85L37.65 18.83Z" fill="#819BC6"/>
<path d="M33.8 30.2L36.07 16.31L42.23 10.15L56.12 7.88L53.85 21.77L47.69 27.93L33.8 30.2ZM37.94 17.27L36.22 27.78L46.73 26.06L52 20.81L53.7 10.3L43.19 12L37.94 17.27Z" fill="#041256"/>
<path d="M42.71 11.08L42.63 11.19C43.7319 13.7035 44.6705 16.2856 45.44 18.92L45.1 18.58C47.7344 19.3494 50.3164 20.2881 52.83 21.39L52.94 21.31L52.85 21.42C50.1444 20.968 47.4718 20.3366 44.85 19.53L44.59 19.45L44.51 19.19C43.7033 16.5681 43.072 13.8956 42.62 11.19L42.71 11.08Z" fill="#041256"/>
<path d="M45.31 19.39L35 29L44.6 18.7C44.6449 18.6522 44.6991 18.614 44.7593 18.588C44.8195 18.5619 44.8844 18.5485 44.95 18.5485C45.0156 18.5485 45.0805 18.5619 45.1407 18.588C45.2009 18.614 45.2551 18.6522 45.3 18.7C45.3469 18.7465 45.3841 18.8018 45.4094 18.8627C45.4348 18.9236 45.4479 18.989 45.4479 19.055C45.4479 19.121 45.4348 19.1863 45.4094 19.2473C45.3841 19.3082 45.3469 19.3635 45.3 19.41L45.31 19.39Z" fill="#041256"/>
<path d="M29.3858 29.29L28.9402 29.7354C28.4559 30.2196 28.4558 31.0047 28.9399 31.489L32.5031 35.0535C32.9873 35.5378 33.7724 35.5379 34.2567 35.0538L34.7023 34.6084C35.1866 34.1242 35.1868 33.3391 34.7026 32.8547L31.1394 29.2903C30.6552 28.806 29.8701 28.8058 29.3858 29.29Z" fill="#DDC0AB"/>
<path d="M33.39 36.42C33.0961 36.4201 32.805 36.3618 32.5338 36.2485C32.2626 36.1352 32.0166 35.9692 31.81 35.76L28.24 32.19C27.8223 31.7703 27.5878 31.2022 27.5878 30.61C27.5878 30.0179 27.8223 29.4498 28.24 29.03L28.69 28.58C29.1098 28.1623 29.6778 27.9279 30.27 27.9279C30.8622 27.9279 31.4302 28.1623 31.85 28.58L35.42 32.15C35.6292 32.3565 35.7954 32.6025 35.9087 32.8738C36.0221 33.145 36.0805 33.4361 36.0805 33.73C36.0805 34.024 36.0221 34.3151 35.9087 34.5863C35.7954 34.8575 35.6292 35.1035 35.42 35.31L34.97 35.76C34.7634 35.9692 34.5174 36.1352 34.2462 36.2485C33.975 36.3618 33.6839 36.4201 33.39 36.42ZM30.27 29.92C30.2071 29.9236 30.1472 29.9482 30.1 29.99L29.65 30.44C29.6071 30.4863 29.5833 30.547 29.5833 30.61C29.5833 30.6731 29.6071 30.7338 29.65 30.78L33.22 34.35C33.2406 34.3752 33.2666 34.3954 33.296 34.4093C33.3254 34.4232 33.3575 34.4304 33.39 34.4304C33.4225 34.4304 33.4546 34.4232 33.484 34.4093C33.5134 34.3954 33.5394 34.3752 33.56 34.35L34 33.9C34.0412 33.8525 34.0657 33.7928 34.07 33.73C34.0673 33.6669 34.0425 33.6068 34 33.56L30.44 30C30.3942 29.9546 30.3342 29.9263 30.27 29.92Z" fill="#041256"/>
<path d="M31.5163 27.1577L31.0708 27.6031C30.5864 28.0872 30.5863 28.8724 31.0704 29.3567L34.6336 32.9211C35.1178 33.4055 35.9029 33.4056 36.3873 32.9214L36.8328 32.476C37.3172 31.9919 37.3173 31.2068 36.8331 30.7224L33.2699 27.158C32.7858 26.6737 32.0006 26.6735 31.5163 27.1577Z" fill="#DDC0AB"/>
<path d="M35.51 34.2901C35.2159 34.2912 34.9245 34.2334 34.6531 34.1201C34.3818 34.0067 34.1359 33.8401 33.93 33.6301C33.7437 33.4427 33.6392 33.1892 33.6392 32.9251C33.6392 32.6609 33.7437 32.4074 33.93 32.2201C34.023 32.1263 34.1336 32.0519 34.2554 32.0012C34.3773 31.9504 34.508 31.9243 34.64 31.9243C34.772 31.9243 34.9027 31.9504 35.0246 32.0012C35.1464 32.0519 35.257 32.1263 35.35 32.2201C35.3684 32.2469 35.393 32.2688 35.4217 32.2839C35.4505 32.2991 35.4825 32.307 35.515 32.307C35.5475 32.307 35.5795 32.2991 35.6083 32.2839C35.637 32.2688 35.6616 32.2469 35.68 32.2201L36.13 31.7701C36.1532 31.7484 36.1715 31.7221 36.1836 31.6927C36.1957 31.6634 36.2013 31.6318 36.2 31.6001C36.2001 31.5685 36.1939 31.5373 36.1819 31.5081C36.1699 31.4789 36.1523 31.4524 36.13 31.4301L32.56 27.8701C32.5154 27.8279 32.4564 27.8043 32.395 27.8043C32.3336 27.8043 32.2746 27.8279 32.23 27.8701L31.78 28.3201C31.7371 28.3663 31.7133 28.427 31.7133 28.4901C31.7133 28.5531 31.7371 28.6138 31.78 28.6601C31.9662 28.8474 32.0708 29.1009 32.0708 29.3651C32.0708 29.6292 31.9662 29.8827 31.78 30.0701C31.687 30.1638 31.5764 30.2382 31.4546 30.2889C31.3327 30.3397 31.202 30.3659 31.07 30.3659C30.938 30.3659 30.8073 30.3397 30.6854 30.2889C30.5636 30.2382 30.453 30.1638 30.36 30.0701C29.9417 29.6486 29.707 29.0789 29.707 28.4851C29.707 27.8912 29.9417 27.3215 30.36 26.9001L30.81 26.4601C31.0174 26.2505 31.2642 26.0842 31.5363 25.9707C31.8083 25.8572 32.1002 25.7987 32.395 25.7987C32.6898 25.7987 32.9817 25.8572 33.2537 25.9707C33.5258 26.0842 33.7726 26.2505 33.98 26.4601L37.54 30.0001C37.7495 30.2074 37.9159 30.4543 38.0294 30.7263C38.1429 30.9984 38.2013 31.2903 38.2013 31.5851C38.2013 31.8798 38.1429 32.1717 38.0294 32.4438C37.9159 32.7158 37.7495 32.9627 37.54 33.17L37.1 33.6101C36.8939 33.824 36.647 33.9944 36.3739 34.1112C36.1008 34.228 35.807 34.2888 35.51 34.2901Z" fill="#041256"/>
<path d="M33.6368 25.0395L33.1913 25.4849C32.7069 25.9691 32.7068 26.7542 33.191 27.2385L36.7542 30.803C37.2383 31.2873 38.0234 31.2875 38.5078 30.8033L38.9533 30.3579C39.4377 29.8737 39.4378 29.0886 38.9536 28.6043L35.3904 25.0398C34.9063 24.5555 34.1212 24.5553 33.6368 25.0395Z" fill="#DDC0AB"/>
<path d="M37.64 32.17C37.3461 32.1701 37.055 32.1118 36.7838 31.9985C36.5126 31.8852 36.2666 31.7192 36.06 31.51C35.9553 31.4204 35.8703 31.3101 35.8103 31.186C35.7503 31.0619 35.7165 30.9268 35.7112 30.7891C35.7059 30.6514 35.7291 30.514 35.7794 30.3857C35.8296 30.2574 35.9059 30.1408 36.0033 30.0434C36.1008 29.9459 36.2174 29.8697 36.3457 29.8194C36.474 29.7691 36.6113 29.7459 36.7491 29.7512C36.8868 29.7565 37.0219 29.7903 37.146 29.8503C37.27 29.9103 37.3804 29.9953 37.47 30.1C37.4906 30.1252 37.5166 30.1454 37.546 30.1593C37.5754 30.1732 37.6075 30.1804 37.64 30.1804C37.6725 30.1804 37.7046 30.1732 37.734 30.1593C37.7634 30.1454 37.7894 30.1252 37.81 30.1L38.25 29.65C38.2969 29.6053 38.3255 29.5447 38.33 29.48C38.3273 29.4169 38.3025 29.3568 38.26 29.31L34.69 25.74C34.6438 25.6972 34.5831 25.6733 34.52 25.6733C34.457 25.6733 34.3962 25.6972 34.35 25.74L33.9 26.19C33.8571 26.2363 33.8333 26.297 33.8333 26.36C33.8333 26.4231 33.8571 26.4838 33.9 26.53C34.0638 26.7213 34.1494 26.9674 34.1397 27.2191C34.13 27.4708 34.0257 27.7095 33.8476 27.8876C33.6695 28.0657 33.4307 28.17 33.1791 28.1797C32.9274 28.1895 32.6813 28.1039 32.49 27.94C32.0723 27.5203 31.8378 26.9522 31.8378 26.36C31.8378 25.7679 32.0723 25.1998 32.49 24.78L32.94 24.33C33.3598 23.9123 33.9278 23.6779 34.52 23.6779C35.1122 23.6779 35.6802 23.9123 36.1 24.33L39.67 27.9C39.8792 28.1065 40.0454 28.3525 40.1587 28.6238C40.2721 28.895 40.3305 29.1861 40.3305 29.48C40.3305 29.774 40.2721 30.0651 40.1587 30.3363C40.0454 30.6075 39.8792 30.8535 39.67 31.06L39.22 31.51C39.0134 31.7192 38.7674 31.8852 38.4962 31.9985C38.225 32.1118 37.9339 32.1701 37.64 32.17Z" fill="#041256"/>
</svg>
